<?xml version="1.0" encoding="UTF-8"?>
<svg id="Layer_1" data-name="Layer 1" xmlns="http://www.w3.org/2000/svg" viewBox="0 0 63.99 78.45">
  <defs>
    <style>
      .cls-1 {
        fill: #ed1e79;
      }
    </style>
  </defs>
  <path class="cls-1" d="M58.69,57.58v.51h-2.5v-1.72c.89,.3,1.73,.7,2.5,1.21Z"/>
  <path class="cls-1" d="M43.65,24.37l1.13-2.03c-.06-.03-.17-.08-.32-.15L55.21,.25h3.48V57.58c-.77-.51-1.61-.91-2.5-1.21V3.88l-21.02,42.53v-1.99s-1.59-.01-1.59-.01l9.87-20.15c.07,.04,.14,.08,.2,.11Z"/>
  <path class="cls-1" d="M45.36,73.82c-.28,.17-.56,.33-.83,.49-.5-.57-.96-1.18-1.34-1.84,.56-.04,2.82,.96,2.17,1.35Z"/>
  <path class="cls-1" d="M44.78,22.34l-1.13,2.03c-.06-.03-.13-.07-.2-.11l1.01-2.07c.15,.07,.26,.12,.32,.15Z"/>
  <path class="cls-1" d="M43.64,66.85c0,4.99,4.06,9.05,9.05,9.05s9.05-4.06,9.05-9.05-4.06-9.05-9.05-9.05-9.05,4.06-9.05,9.05Zm-2,0c0-6.09,4.96-11.05,11.05-11.05,1.22,0,2.4,.2,3.5,.57v1.72h2.5v-.51c3.04,1.97,5.05,5.39,5.05,9.27,0,6.09-4.96,11.05-11.05,11.05-3.22,0-6.12-1.39-8.16-3.59,.27-.16,.55-.32,.83-.49,.65-.39-1.61-1.39-2.17-1.35-.99-1.65-1.55-3.57-1.55-5.62Z"/>
  <polygon class="cls-1" points="35.18 44.42 35.17 46.41 35.17 46.42 32.6 46.41 33.58 44.41 35.18 44.42"/>
  <polygon class="cls-1" points="33.58 44.41 32.6 46.41 26.21 46.38 25.24 44.38 33.58 44.41"/>
  <polygon class="cls-1" points="35.17 46.42 29.4 58.09 23.71 46.37 26.21 46.38 29.4 52.94 32.6 46.41 35.17 46.42"/>
  <polygon class="cls-1" points="25.24 44.38 26.21 46.38 23.71 46.37 22.74 44.36 25.24 44.38"/>
  <path class="cls-1" d="M15.64,24.61l9.6,19.77-2.5-.02L13.79,25.93c.09-.08,.19-.16,.29-.23,.51-.38,1.03-.74,1.56-1.09Z"/>
  <path class="cls-1" d="M22.74,44.36l.97,2.01-20.84-.1c.03-.67,.1-1.33,.2-1.99l19.67,.08Z"/>
  <path class="cls-1" d="M35.63,21.06c-2.23-.56-4.98-.7-8.24-.41-4.33,.38-8.24,1.7-11.75,3.96l-1.01-2.08c3.81-2.31,7.92-3.66,12.32-4.05,3.52-.31,6.26-.24,8.46,.24,1.92,.48,4.02,1.09,6.46,2.16,.27,.12,1.86,.93,2.59,1.31l-1.01,2.07c-.54-.29-1.39-.71-1.81-.93-2.15-1.1-4.15-1.85-6.01-2.27Z"/>
  <path class="cls-1" d="M15.64,24.61c-.53,.35-1.05,.71-1.56,1.09-.1,.07-.2,.15-.29,.23l-1.05-2.15c.05-.04,.1-.07,.15-.11,.57-.4,1.15-.78,1.74-1.14l1.01,2.08Z"/>
  <path class="cls-1" d="M12.74,23.78l1.05,2.15c-3.71,2.83-6.55,6.43-8.54,10.81-1.1,2.44-1.83,4.96-2.18,7.54h-.32v-8.3c.1-.22,.2-.43,.3-.65,2.29-4.7,5.51-8.56,9.69-11.55Z"/>
  <path class="cls-1" d="M2.75,44.27h.32c-.1,.67-.17,1.33-.2,2h-.12v-2Z"/>
  <rect class="cls-1" x="1.8" y="44.27" width=".95" height="2"/>
  <path class="cls-1" d="M2.75,46.27v6.75l-1.55,.07-.21-11.83c.41-1.81,1-3.57,1.76-5.28v8.29h-.95v2h.95Z"/>
  <path class="cls-1" d="M3.81,.25L14.63,22.53c-.59,.36-1.17,.74-1.74,1.14-.05,.04-.1,.07-.15,.11L2.75,3.2V35.98c-.76,1.71-1.35,3.47-1.76,5.28L.25,.25H3.81Z"/>
  <path class="cls-1" d="M18.21,73.37c4.24,2.11,8.67,2.96,13.3,2.55,3.32-.29,6.18-.93,8.57-1.9,1.01-.43,2.02-.94,3.02-1.53,.02-.02,.05-.02,.09-.02,.38,.66,.84,1.27,1.34,1.84-.11,.06-.22,.12-.32,.18-1.3,.72-2.64,1.31-4,1.79-2.45,.93-5.19,1.52-8.2,1.79h-.03c-5.28,.48-10.24-.38-14.89-2.55-4.65-2.22-8.49-5.48-11.5-9.78C2.61,61.39,.88,56.37,.38,50.69c-.29-3.27-.08-6.42,.61-9.43l.21,11.83,1.55-.07v-6.75h.12c-.11,1.46-.09,2.93,.04,4.43,.44,4.93,2.05,9.4,4.83,13.41,2.79,4.01,6.28,7.1,10.47,9.26Z"/>
</svg>