<?xml version="1.0" encoding="UTF-8"?>
<svg id="Layer_1" data-name="Layer 1" xmlns="http://www.w3.org/2000/svg" viewBox="0 0 63.5 77.95">
  <defs>
    <style>
      .cls-1 {
        fill: #010101;
      }

      .cls-2 {
        fill: none;
        stroke: #010101;
        stroke-width: 2px;
      }
    </style>
  </defs>
  <path class="cls-1" d="M31.73,77.83c-5.28,.47-10.24-.39-14.89-2.56-4.65-2.22-8.49-5.48-11.5-9.78C2.36,61.14,.63,56.12,.13,50.44c-.48-5.48,.41-10.6,2.67-15.36,2.32-4.76,5.59-8.65,9.84-11.66,4.29-3.01,8.98-4.74,14.06-5.19,3.52-.31,6.26-.24,8.46,.24,1.92,.48,4.02,1.09,6.46,2.16,.33,.14,2.57,1.3,2.91,1.46l-1.13,2.03c-.5-.28-1.53-.79-2.01-1.04-2.15-1.1-4.15-1.85-6.01-2.27-2.23-.56-4.98-.7-8.24-.41-4.98,.44-9.41,2.12-13.31,5.05-3.85,2.87-6.79,6.55-8.83,11.04-1.99,4.43-2.77,9.09-2.34,13.96,.44,4.93,2.05,9.4,4.83,13.41,2.79,4.01,6.28,7.1,10.47,9.26,4.24,2.11,8.67,2.96,13.3,2.55,3.32-.29,6.18-.93,8.57-1.9,1.01-.43,2.02-.94,3.02-1.53,.33-.2,2.95,.91,2.26,1.33-.38,.23-.77,.46-1.15,.67-1.3,.72-2.64,1.31-4,1.79-2.45,.93-5.19,1.52-8.2,1.79Z"/>
  <circle class="cls-2" cx="52.44" cy="66.6" r="10.05" shape-rendering="crispEdges"/>
  <line class="cls-2" x1="1.55" y1="45.02" x2="34.93" y2="45.17"/>
  <path class="cls-1" d="M58.44,0V57.84h-2.5V3.63L29.15,57.84,2.5,2.95V52.77l-1.55,.07L0,0H3.56L29.15,52.69,54.96,0h3.48Z"/>
</svg>