<?xml version="1.0" encoding="UTF-8"?>
<svg id="Layer_1" data-name="Layer 1" xmlns="http://www.w3.org/2000/svg" viewBox="0 0 582.33 548.24">
  <defs>
    <style>
      .cls-1 {
        fill: #f6adcd;
      }

      .cls-2 {
        opacity: .76;
      }
    </style>
  </defs>
  <g class="cls-2">
    <path class="cls-1" d="M0,204.28c9.52-9.64,18.64-19.7,28.66-28.79,10.41-9.45,23.59-12.93,37.32-14.64,16.63-2.06,33.05,.16,49.49,2.06,17.79,2.05,35.5,4.72,53.53,3.7,12.68-.72,24.74-3.03,35.45-10.23,1.89-1.27,3.51-2.93,5.26-4.41,.1,.15,.19,.3,.28,.46,.45,.43,1.07,1.31,1.33,1.21,6.09-2.24,12.15-4.56,18.19-6.93,5.33-2.09,10.64-4.26,15.95-6.4,.29,.56,.57,1.12,.86,1.68-4.46,2.61-8.92,5.22-14.08,8.24,.45-1.2,.64-1.71,1.02-2.71-7.22,4.34-14.12,8.48-21.01,12.61-.31-.54-.61-1.08-.92-1.62,3.34-1.88,6.69-3.77,10.47-5.9-10.92,1.42-16.74,10.54-25.88,15.11,.36-1.28,.61-2.16,.97-3.44-2.35,1.86-4.43,3.51-5.6,4.44-3.17,.37-5.58,1.02-7.92,.86-6.4-.44-12.71,3.44-19.21,.24-1.31-.65-3.2-.18-4.81-.12-3.61,.14-7.23,.25-10.83,.55-1.7,.14-3.35,.85-5.06,1.02-1.11,.11-2.3-.19-3.41-.48-.75-.2-1.38-.92-2.12-1.02-5.3-.78-10.59-1.72-15.92-2.11-4.55-.34-9.18,.29-13.72-.1-2.52-.22-4.89-1.89-7.43-2.42-1.67-.35-3.52,.14-5.76,.29-.72-.31-2.1-1.39-3.53-1.46-9.31-.47-18.3,.76-27.16,6.69,.36-2.53,.57-4.05,.95-6.68-4.98,1.41-10.09,2.85-15.2,4.3-.38,4.14-5.89,7.23-9.94,6.81-2.3-.24-5.11,1.62-7.19,3.2-1.6,1.22-2.29,3.57-3.62,5.22-1.48,1.84-3.29,3.41-4.85,5.18-.91,1.03-1.63,2.24-2.91,4.03-.6-.08-2.28-.32-4.1-.57-.45,9-5.38,14.78-12.45,19.15-1.78,1.1-3.52,1.68-1.6,4.73C5.4,219.09,2.96,223.8,0,224.66,0,224.39,0,224.12,0,223.84c.52-1.33,1.54-2.68,1.48-3.98-.17-3.44-1.47-6.83,1.64-9.88,2.1-2.07,3.68-4.68,5.41-7.12,1.8-2.54,3.51-5.15,4.65-6.84C9.19,199.5,4.6,203.52,0,207.54c0-1.09,0-2.17,0-3.26Z"/>
    <path class="cls-1" d="M0,462.74c3.21-1.23,4.47-3.73,4.63-6.98,.48-10.14,1.03-20.28,1.44-30.42,.08-2.01-.11-4.07-.51-6.04-2.33-11.32,1.3-22.3,1.93-33.44,.11-1.99,1.88-4.24,3.49-5.72,8.9-8.2,17.46-16.66,23.82-27.08,.46-.75,1.29-1.27,2.2-2.14,1.48,2.9,1.41,4.78-.62,7.43-3.26,4.26-5.34,9.4-8.35,13.89-1.06,1.59-3.37,2.35-5.23,3.4-1.51,1.18-2.87,3.08-4.55,3.41-4.25,.84-6.14,2.65-6.29,7.27-.13,3.92-1.76,7.8-2.92,12.45,2.52,.23,5.26,.48,8.35,.76-.93,1.61-1.61,2.8-2.92,5.09,2.82-1.47,6.01,.6,6.13-3.65,.01-.44,2.43-.8,3.73-1.2,.13,.15,.24,.31,.35,.48-2.14,3.59-3.97,7.42-6.53,10.67-1.6,2.03-4.69,2.85-6.39,4.83-1.03,1.2-.83,3.57-.93,5.43-.14,2.5-.03,5.02-.03,8.15,1.08-.96,1.7-1.51,2.44-2.16,1.72,2.44,.94,3.76-1.42,4.78-2.35,1.02-4.12,2.49-2.47,6.11,.52-1,.75-1.49,1.03-1.96,.33-.55,.69-1.07,1.04-1.61,.49,.4,1.42,.81,1.41,1.19-.12,3.35-.41,6.69-.65,10.04-.46,0-.92-.01-1.37-.02-.23-1.87-.47-3.73-.7-5.6-.52-.05-1.03-.09-1.55-.14,0,1.93-.37,3.97,.16,5.75,.26,.86,2.16,1.3,3.38,1.79,1.58,.63,3.22,1.1,4.84,1.64l-.57,1.46c-1.15-.47-2.3-.95-3.66-1.51-1.43,1.71-2.9,3.46-4.36,5.21,.22,.27,.45,.54,.67,.82,.68-.31,1.37-.61,2.75-1.23-.25,1.57-.37,2.75-.64,3.9-.21,.89-1.13,1.99-.85,2.57,1.95,4.12-1.03,5.14-3.63,7.01-1.57,1.13-2.43,3.63-3,5.68-.65,2.31-.38,4.88-1,7.2-.3,1.12-1.72,1.95-2.63,2.9,0-6.79,0-13.59,0-20.38Zm11.1-58.91c-.48,2.67-1.02,5.66-1.7,9.37,3.06-2.17,5.43-3.85,7.88-5.58-2.36-1.45-3.79-2.32-6.18-3.79Z"/>
    <path class="cls-1" d="M0,333.1c.66-5.28,1.3-10.55,1.99-15.83,.25-1.89,.62-3.76,.93-5.64,.8,.05,1.59,.09,2.39,.14,.47,8.6,.94,17.2,1.32,24.21,3.62-7.48,4.59-14.21,1.44-13.95-.74-4.33-1.52-8.55-2.14-12.8-.21-1.44-.03-2.93-.03-4.4,.62-.06,1.25-.11,1.87-.17,2,8.49,4,16.98,5.94,25.2,2.54-4.82,1.52-10.23-.57-16.03,4.7,2.87,6.6,7.77,5.33,11.93-1.81,5.93-3.45,11.9-5.19,17.85-.18,.62-.37,1.31-.77,1.79-2.5,2.99-5.06,5.94-7.59,8.9,.83-3.16,1.66-6.31,2.49-9.47,1.04-3.95,2.09-7.91,3.14-11.86-.35-.09-.7-.19-1.05-.28-1.14,3.73-2.29,7.46-3.56,11.6-.6-.91-.93-1.4-.76-1.15C3.5,347.77,1.75,352.67,0,357.56c0-8.15,0-16.31,0-24.46Z"/>
    <path class="cls-1" d="M0,295.59c1.2,3.83,2.69,7.6,3.46,11.51,.28,1.38-1.17,3.11-1.83,4.68-.55-.5-1.09-1.01-1.64-1.51,0-4.89,0-9.78,0-14.68Z"/>
    <path class="cls-1" d="M0,361.64c1.63-2.45,3.27-4.89,4.9-7.34C3.27,358.65,1.63,363,0,367.35c0-1.9,0-3.8,0-5.71Z"/>
    <path class="cls-1" d="M534.85,188.66c2.4-1.07,4.8-2.14,7.4-3.3-2.38-3.65-4.52-6.94-6.66-10.23,.67-.56,1.34-1.12,2.01-1.68,3.33,3.14,6.65,6.27,9.98,9.41-.25,.31-.51,.61-.76,.92-.82-1.36-1.64-2.72-2.27-3.76,2.24-.58,4.04-1.04,5.84-1.51-.8-.81-1.61-1.63-2.41-2.44,.36,2.81,.71,5.62,1.21,9.53-.85,.51-2.75,1.64-4.63,2.77,2.82,4.56,8.11,7.32,11.72,5.73-1.07-.87-2.01-1.64-2.95-2.42,.2-.42,.41-.85,.61-1.27,2.75,1.35,5.49,2.71,8.24,4.06l.59-.77c-3.04-2.01-6-4.13-9.16-5.91-.58-.33-1.93,.71-2.93,1.11-.9,.36-1.8,.72-3.87,1.55,4.31-6.75,11.4-6.54,14.63-1.02,.6,1.03,1.86,1.68,3.28,2.91-.32-7.85-7.32-8.06-10.83-11.77-1.6-1.7-4.32-2.38-1.15-5.04,.52-.44,.46-2.01,.16-2.87-.68-1.9-1.62-3.72-2.56-5.51-1.78-3.37-3.38-3.61-6.02-.8-2.28,2.42-4.34,2.83-6.89,.26-2.92-2.94-6.63-3.25-10.62-2.77-1.2,.14-2.55-.98-3.83-1.52,1.03-.87,2.16-2.57,3.06-2.45,3.43,.44,6.76,1.63,10.19,2.21,1.45,.24,3.05-.34,4.58-.55-.53-1.43-1.07-2.85-1.6-4.28-.23,.46-.46,.92-.69,1.37-1.9,.13-3.87,.59-5.64,.18-.51-.12-.43-2.75-.63-4.23,1.25,.12,2.5,.25,4.71,.46-1.02-1.8-1.85-3.53-2.98-5.06-.22-.29-2.06,0-2.3,.46-.97,1.84-1.61,3.87-2.72,6.71-2.21,.66-5.71,1.71-10.04,3-1.24-.96-4.6,.29-6,2.92-3.33,6.28-6.94,12.41-11.38,18.19,.34-1.88,.68-3.75,1.03-5.63-.26-.07-.52-.14-.78-.21-.63,2.28-1.65,4.54-1.8,6.85-.3,4.56-2.37,7.62-6.57,9.03-4.22,1.42-8.44,2.86-12.57,4.53-8.22,3.33-15.31,.18-17.3-8.45-1.23-5.34-1.21-10.96-2.12-16.39-.32-1.9-1.76-3.61-2.69-5.4l-1.11,.44v4.58c-3.27-1.22-5.7-9.72-3.97-14.82,.63,1.8,.83,2.89,1.36,3.8,1.3,2.23,2.17,5.26,5.98,3.29,.66-.34,2.86,.6,2.87,.98,.09,4.82,.93,9.25,4.77,12.84-1.35-.82-2.7-1.64-4.55-2.77,0,2.52-.05,4.49,.04,6.46,.02,.43,.6,1.2,.88,1.19,7.33-.4,6.71,7.28,10.83,10.06,.63-.81,1.48-1.91,2.33-3,4.83,3.55,15.8-.42,18.16-6.74-4.01,.45-7.9,.88-11.79,1.31,0,.26-.01,.52-.02,.78h3c.06,.52,.12,1.04,.18,1.56-2.7,.36-5.39,.72-8.19,1.09,0-.83-.11-1.2,.02-1.3,5.92-5.09,5.45-4.86,2.06-11.96-2.68-5.62-4.02-11.89-5.96-17.86,.48-.18,.96-.37,1.44-.55,.69,1.1,1.39,2.19,2.33,3.68-1.34-10.84,.56-12.82,11.5-10.68-3.68,1.61-7.2,2.07-8.57,4.03-1.51,2.16-1.03,5.69-1.46,8.89h2.2v12.08c.34,.02,.69,.05,1.03,.07,.17-.44,.54-.91,.48-1.33-.98-7.87,2.89-12.31,10.14-14.33,1.88-.52,4.13-1.07,3.25-3.45-.65-1.77-2.54-3.08-4.13-4.88-.18-.67-.13-2.41-.97-3.25-3.54-3.49-7.36-6.69-11.04-10.03-1.17-1.06-2.25-2.23-2.73-3.97,4.39,2.97,8.78,5.93,13.16,8.9,3.15,4.36,5.58,9.61,9.63,12.85,4.63,3.71,6.08,7.58,5.22,12.96-.07,.45,.23,.96,.41,1.66,3.35-5.97,3.1-8.22-1.23-12.66-.38-.39-1.06-.74-1.09-1.15-.67-8-8.38-9.35-12.9-13.69-1.01-1.6-2.08-3.17-3.02-4.81-2.23-3.88-4.35-7.82-6.64-11.66-.32-.54-1.36-.66-2.06-.97-.4,.37-.81,.74-1.21,1.11-.14-1.28-.09-2.63-.48-3.82-.54-1.63-1.05-3.59-2.24-4.63-3.65-3.16-7.03-6.1-4.53-11.66,.38-.85-.51-2.25-.76-3.41-.3-1.42-1.26-3.29-.7-4.2,1.99-3.22,0-5.77-1.21-8.13-3.95-7.65-8.31-15.09-12.49-22.63-2.39-4.3-4.65-8.68-7.16-12.9-.66-1.11-2.05-1.8-3.24-2.79,.06-.13,.14-.59,.4-.76,2.74-1.75,7.23-1.52,6.39-7.09-.26-1.73,2.85-3.79,3.9-5.94,2.12-4.31,3.88-8.8,5.79-13.21-.4-.22-.79-.43-1.19-.65-2.17,1.98-4.36,3.96-6.52,5.96-.69,.64-1.32,1.92-1.98,1.92-5.59,0-7.96,3.59-9.42,9.1-2.42-5.32-4.44-9.78-6.47-14.23,.1-.2,.22-.39,.35-.58h2.71c-.31-1.39-.57-2.58-.84-3.77,.4-.2,.81-.4,1.21-.6,1.47,2.75,2.95,5.5,4.71,8.8,3.46-2.43,7.72-4.67,10.96-7.92,3.16-3.17,5.28-7.38,8.38-10.9,1.9,7.61,2.03,14.91-.74,22.04-2.15,5.55-4.39,11.07-6.86,16.48-.71,1.57-2.31,2.73-3.51,4.08-.38-.17-.76-.35-1.14-.52,.25,.71,.35,1.53,.77,2.12,6.1,8.61,12.15,17.27,18.43,25.75,2.22,2.99,3.55,5.83,2.91,9.72-.39,2.43-.24,5.34,.74,7.55,4.34,9.75,8.88,19.44,13.75,28.93,2.7,5.26,6.15,10.15,9.36,15.14,1.46,2.27,3.25,2.84,5.77,1.11,2.89-1.98,5.89-4.31,9.17-5.09,3.23-.77,6.18-2.05,9.24-2.93,4.93-1.41,8.23-4.27,11.31-7.88,.32-.38,.76-.66,1.77-1.53-.38,5.72-.28,10.82-1.18,15.74-.66,3.61,.47,5.94,2.76,8.32,5.44,5.66,11.29,11.03,16.02,17.24,4.64,6.09,7.96,13.16,12.17,19.59,1.25,1.91,3.64,3.05,5.37,4.68,2.09,1.95,4.04,4.05,6.05,6.08-3.61,3.9-3.71,7.64-.15,9.47,.64,.33,1.94,.2,2.42-.26,.44-.42,.33-1.61,.15-2.38-.12-.52-.78-.92-1.28-1.46-.5,1.04-.85,1.78-1.38,2.88-2.82-3.22-.44-5.66,.29-8.2,6.18,3.86,6.46,5.17,2.6,12.06-.14,.15-.28,.31-.42,.46-5.93,1.56-6.28-3.84-8.54-6.85-2.85-3.82,2.02-4.32,3.67-7.61-2.45,1.26-3.83,1.97-5.42,2.78-.32-2.03-.58-3.7-.95-6.04-1.08,1-1.66,1.28-1.8,1.7-1.08,3.33-2.96,5.11-6.82,4.85-1.28-.09-2.68,1.63-4.03,2.52-.25,.08-.51,.16-.77,.22-2.11-1.12-4.4-2.01-6.26-3.45-1.45-1.12-2.24-3.05-3.52-4.43-1.39-1.5-3.01-2.8-3.74-3.46-2.96,1.71-5.13,2.95-7.29,4.2,.24-1.68,.47-3.35,.71-5.03,0,0,.25-.25,.25-.25Zm-37.87-24.19c-3.42,2.04-6.84,4.09-10.5,6.27,.39,1.17,1.41,2.82,1.41,4.47,0,3.28,1.96,4.7,4.45,4.11,1.99-.47,3.72-2.47,5.3-4.06,.98-.98,1.13-2.99,2.2-3.63,2.73-1.63,2.67-3.7,1.23-5.78-2.51-3.64-.78-5.19,2.78-6.15l-.28-1.38c-2.51,.17-5.03,.34-7.7,.52,.67,2.45,1.05,3.85,1.43,5.26-.1,.13-.21,.25-.33,.36Zm34.6-19c-6.75,2.4-12.7,5.59-17.41,11.8,13.49-3.76,16.45-5.77,17.41-11.8Zm-19.9,12.28c2.71-5.97,5.15-11.35,7.6-16.73-3.17,2.39-5.65,5.37-8.68,7.62-4.03,2.98-2.49,5.39,1.09,9.11Zm16.66-22.91c-5.35,3.67-8.88,8.3-9.67,14.8,6.23-3.03,9.96-7.56,9.67-14.8Zm-58.11,52.32c-.51,.25-1.03,.49-1.54,.74,1.02,1.95,2.03,3.9,3.05,5.85,.61-.33,1.21-.67,1.82-1-1.11-1.86-2.22-3.72-3.33-5.58Z"/>
    <path class="cls-1" d="M579.78,209.05c-.12,1.61,.38,4.05-.47,4.67-3.53,2.61-6.49,6.02-11.77,6.11-4.56,.08-7.97,.8-11.73-3.56-2.46-2.85-8.27-2.91-12.63-4.03-4.27-1.1-8.65-1.79-12.89-2.99-1.93-.55-3.59-1.95-5.43-2.86-3.11-1.53-6.26-2.98-9.43-4.48-5.95,3.93-7.04,10.69-9.31,16.82-3.86,10.42-7.68,20.86-11.76,31.2-1.02,2.59-2.93,4.83-4.48,7.2-5.63,8.58-7.61,18.41-9.78,28.18-.17,.77-.59,1.48-.55,1.4-1.36,.34-2.33,.28-2.78,.73-6.73,6.74-13.73,12.95-23.05,16.08-2.94,.99-5.61,3.09-3.69,8.1,7.52-5.63,14.78-11.07,22.05-16.5,.22,.13,.44,.26,.66,.39-1.36,1.85-2.53,3.88-4.12,5.51-1.65,1.7-3.62,3.1-5.58,4.46-2.02,1.4-4.19,2.6-6.06,4.24,11.27-2.05,16.24-10.69,20.01-20.56,.6,.37,1.19,.73,1.79,1.1-.71,2.26-1.06,4.73-2.2,6.76-3.98,7.04-8.9,13.14-16.56,16.77-1.95,.92-3.28,3.75-4.26,5.98-1.89,4.31-3.39,8.8-4.93,13.26-.55,1.6-1.19,3.37-1.01,4.99,.67,6.19,1.45,12.38,2.56,18.5,1.42,7.86-3.16,17.24-9.06,22.24-6.66,5.65-12.42,12.45-18.1,19.15-2.51,2.97-4.52,5.9-8.69,6.73-2.03,.41-3.9,1.83-5.75,2.94-5.11,3.06-9.89,6.99-15.37,9.02-3.88,1.43-7.36,2.45-9.91,5.96-2.03,2.79-2.17,2.57-3.73-1.2-1.19-2.86-1.8-6.26-5.84-6.98-.61-.11-1.22-2.05-1.28-3.17-.17-3.1-.06-6.22,.85-10.02,1.55,3.13,3.26,6.19,4.59,9.41,1.38,3.34,2.4,6.84,3.9,11.23,2.26-6.22,4.63-11.39,5.97-16.81,1.54-6.24,6.62-10.49,12.91-9.96,1.12,.1,2.36-.89,3.51-1.43,.89-.42,1.74-.94,3.43-1.86-1.01,4.41-1.83,7.21-6.35,6.89-2.08-.15-4.26,.73-6.36,1.26-2.6,.65-4.99,5.19-3.18,6.59,3.79,2.93,.68,3.27-1.05,4.4-.26,.17-.27,.71-.56,1.59,1.11-.14,2.04-.03,2.72-.39,2.62-1.38,5.12-2.97,7.73-4.37,5.1-2.72,10.49-4.98,15.27-8.16,3.53-2.35,6.34-5.79,9.34-8.88,5.62-5.79,11.56-11.33,16.58-17.6,5.06-6.33,5.49-13.9,3.01-21.61-.44-1.38-.46-2.9-.73-4.72-4.49-2.61-9.6-4.89-11.3-11.58-1.82-7.2-5.05-14.04-7.66-21.04l1.22-.68c.56,.38,1.49,.66,1.62,1.15,1.42,5.19,6.38,8.82,6.16,14.84-.09,2.29,1.39,4.63,2.19,6.95,.17,.51,.34,1.17,.73,1.42,2.43,1.53,4.92,2.95,7.52,4.49,1.51-6.26-7.92-7.72-7.68-14.7,2.9,2.54,5.09,4.44,7.8,6.81,2.43-8.09,3.3-15.25,.06-22.67-1.08-2.46-.95-5.48-1.18-8.26-.21-2.53-.08-5.09-.25-7.62-.19-2.86,1.15-3.91,4.08-3.77,0,.78-.03,1.4,0,2.02,.09,1.71-.38,4.45,.42,4.9,1.47,.82,4.09,.98,5.55,.18,7.02-3.87,12.68-9.25,17.43-15.82,1.82-2.52,3.76-4.22,2.38-7.58-.18-.45,1.51-1.67,2.96-3.18,1.15-6.75,2.59-14.7,3.81-22.68,.35-2.3-.12-4.72,.13-7.04,.2-1.81,.79-3.61,1.46-5.32,.78-2,1.83-3.89,2.92-6.16,.68,.17,1.6,.41,2.06,.53,1.16-4.71,2.29-9.27,3.42-13.83l.27,.15c4.61,5.68-.12,10.24-1.72,15.25-2.48,7.8-4.75,15.68-6.97,23.56-.32,1.15,.13,2.51,1.15,3.92,1.35-3.36,2.73-6.7,4.03-10.08,.18-.46-.25-1.36,0-1.55,3.35-2.63,3.18-6.7,4.51-10.19,1.61-4.23,4.26-8.07,6.49-12.07,1.38-2.46,2.84-4.85-1.07-6.5-.58-.25-.85-1.23-1.83-2.75,1.86,.71,2.81,1.07,4.68,1.78-.9-1.87-1.47-3.06-2.05-4.25,5.91-6.15,2.6-13.9,3.98-21.29,.68-.13,1.77-.34,2.65-.51,0-4.48-.51-8.81,.15-12.95,.59-3.72,2.79-6.84,8.13-6.27-.91,1.39-1.64,2.7-2.56,3.86-3.38,4.25-2.69,6.83,2.25,9.13,.58,.27,.89,1.99,.7,2.91-.65,3.1-1.54,5.95,2.14,8.07,4.14,2.38,10.72,3.32,13.17,1.15,.77-.68,.9-2.07,1.46-3.49,.41,1.13,.75,2.05,1.11,3.03,1.57-.87,3.08-1.7,4.89-2.7,.17,1.07,.3,1.87,.25,1.59,3.28,.79,5.95,1.26,8.47,2.16,.57,.21,.6,1.94,.9,3.04,2.24-.59,4.83-1.28,7.43-1.97,.26-.07,.52-.14,.77-.22,3.23,4.97,2.9,5.62-3.89,6.82,1.97,1.34,4.08,3.8,5.33,3.42,3.39-1.03,2.76,1.39,2.9,2.72,.45,4.36,2.37,5.27,6,3.3-2.42-2.64-4.95-5.4-7.24-7.89,.79-1.93,1.43-3.47,2.06-5,2.91,.75,2.87,.75,2.64,3.81-.04,.57,.23,1.33,.64,1.72,2.37,2.27,4.82,4.45,7.5,6.89,0-3.35,.36-5.84,4.6-4.57,.79,.24,2.22-1.66,3.36-2.57,.14-.15,.28-.31,.42-.46Zm-27.75,2.02c-7.47-3.7-13.04-15.39-22.8-6.97,7.25,2.22,15.03,4.6,22.8,6.97Zm-47.24-7.56c5.19,3.2,5.64-1.87,6.61-3.99,.7-1.52-1.22-4.24-2.32-7.43-1.79,4.77-3.09,8.24-4.28,11.42Z"/>
    <path class="cls-1" d="M146.75,521.28c1.13-.59,2.26-1.18,3.98-2.08-1.67-.52-3.34-1.33-5.08-1.54-5.01-.6-9.61-1.39-13.49-5.45-1.79-1.88-5.54-2.07-8.48-2.63-4.59-.86-8.74-2.39-12.04-5.78,1.82-1.33,3.44-2.51,5.88-4.29,.71,1.77,1.53,3.81,2.34,5.84,.45-.02,.91-.04,1.36-.06-.16-2.88-.32-5.75-.48-8.7,3.01,1.57,3.04,0,2.69-3.02-.6-5.21-3.19-8.4-7.93-8.39,.09,1.26,.17,2.5,.3,4.33-1.78-.23-3.28-.42-6.03-.77-.95,6.32-1.91,12.73-2.85,19.04-4.34-5.08-3.89-14.94,1.37-19.83,3.95-3.67,4.89-8.03,4.21-12.94-.53-3.83-2.83-6.07-5.48-5.89-1.58-3.54-2.63-6.5-4.16-9.19-2.76-4.85-6.2-9.36-8.59-14.37-1.22-2.55-.68-5.91-1.13-8.88-.15-1-.87-1.92-2.13-2.64-.31,2.19-.62,4.39-1.11,7.87-2.44-3.04-4.03-5.02-6.21-7.74,2.06,.73,3.59,1.27,5.15,1.82,.46-1.45,1.16-3.64,1.97-6.16-3.31-.35-3.67-1.62-2.04-4.64,2.9-5.37,.23-11.34-5.89-15.77,1.43-2.92-1.1-12.28-3.94-14.55,2.68-4.54,2.44-9.38,.69-14-.47-1.24-3.14-1.64-4.68-2.37,.76-.47,1.84-1.13,3.19-1.96-3.94-4.49-3.95-9.22-2.4-14.49,.85-2.88,.22-6.18,.53-9.26,.15-1.49,.52-3.3,1.48-4.31,7.09-7.47,14.42-14.71,21.47-22.22,.89-.95,.53-3.06,.74-4.59,3.04,.92,9.29-1.76,10.09-4.92,6.17,2.29,12.2,5.13,18.54,6.74,9.37,2.38,18.9,4.31,28.47,5.67,9.76,1.39,19.66,2.6,29.48,2.43,5.57-.09,10.98,.89,16.47,.76,5.61-.13,11.22-.53,16.84-.63,6.15-.11,12.3-.03,18.77-.03-3.06-5.05-3.1-7.03,.09-10.8-.28,4.34-.89,8.38,3.33,10.41,1.5,.72,3.32,.92,4.64,1.86,5.55,3.97,10.96,8.14,16.45,12.19,.75,.55,1.68,.85,2.84,1.41,.53-.63,1.15-1.36,2.3-2.72,.26,1.45,.67,2.32,.48,3.03-.56,2.16-.28,2.68,2.27,2.72,1.81,.03,4.2,.19,5.64,3.02,1.2,2.36,4.54,3.64,7.46,4.75-2.32-2.58-4.64-5.16-6.95-7.73l.98-.93c4.01,1.64,8.04,3.22,11.98,5,.48,.21,.46,1.52,.67,2.32-1.14,.16-2.27,.32-3.93,.55-.71,2.2,1.26,2.97,3.29,3.92,4.61,2.16,9.28,4.25,13.71,6.76,8.09,4.57,13.23,11.59,16.8,20.13,1.29,3.09,4.31,5.45,6.55,8.15,.11,.12,.21,.24,.3,.37,.53,4.08,1.07,8.15,1.6,12.23l-1.1,.3c-.69-2.63-1.39-5.26-2.17-8.23-.89,.26-1.91,.55-4.48,1.29,1.58-2.59,2.5-4.08,3-4.9-1.67-1.88-4.16-3.46-4.81-5.6-3.33-10.97-11.87-16.91-20.93-22.28-8.8-5.22-17.85-10.05-26.8-15.02-.67-.37-1.44-.57-3.23-.11,2.49,4.75,4.98,9.51,7.7,14.7,2.33-1.32,4.59-2.6,7.22-4.08,.59,1.39,1.36,3.17,2.29,5.35-9.5,.81-4.83,7.74-5.83,12.19-.31-.03-.65,.02-.71-.09-4.78-8.55-9.61-17.06-14.21-25.71-.79-1.49-.53-3.53-.83-5.88-4.36-3.53-9.15-7.87-14.45-11.49-2.71-1.85-6.31-3.35-9.51-3.37-19.69-.13-39.37,.39-59.06,.34-15.24-.04-30.25-2.07-44.96-6.34-5.78-1.68-11.82-2.44-17.65-3.96-1.67-.43-3.37-1.77-4.49-3.15-1.73-2.12-3-1.75-4.63-.08-9.44,9.73-18.95,19.39-28.3,29.21-.94,.99-1.49,2.96-1.28,4.34,1.18,7.9,2.72,15.75,3.96,23.65,.61,3.88,1.37,7.86,1.08,11.71-.63,8.19,2.1,15.06,6.4,21.78,1.51,2.36,1.65,5.68,2.13,8.6,.52,3.17,.38,6.48,1.12,9.58,1.07,4.47,2.5,8.88,4.12,13.19,1.56,4.14,3.15,8.35,5.43,12.11,6.28,10.4,12.98,20.55,19.36,30.88,1.61,2.61,2.67,5.55,3.77,7.92-1.12,2.2-2.1,4.12-3.07,6.04l.93,.92c1.41-1.25,2.83-2.49,4.92-4.33,.62,.95,1.85,2.08,1.93,3.29,.05,.71-1.69,1.62-2.72,2.29-1.29,.84-2.68,1.52-3.87,2.86,1.99,1.07,3.9,4.09,5.53-.42,.23-.64,1.42-1.48,1.97-1.36,1.11,.24,2.81,.9,3.01,1.71,1.18,4.65,5.98,4.86,8.83,7.42,2.83,2.53,6.45,4.18,9.72,6.22-.24,.62-.47,1.23-.71,1.85h-6.49c-.17-.12-.34-.25-.5-.38Z"/>
    <path class="cls-1" d="M329.8,315.99c.99-1.11,1.95-2.25,2.97-3.33,3.28-3.5,7.12-4.69,12.05-4.18,6.44,.66,6.69,.06,6.98-6.1,.09-1.98,.18-3.96,.29-6.29-.78-.04-1.82-.1-3.26-.19,1.44-3.31,3.03-6.16,3.92-9.21,.83-2.84,.94-5.9,1.37-8.86l1.2,.09c.16,1.77,.32,3.55,.53,5.99,.73-1.02,1.45-1.56,1.47-2.13,.17-4.84,.27-9.69,.3-14.53,.04-7.04,.24-14.09-.12-21.11-.2-3.94,1.12-8.48-2.94-11.57-.26-.2,.16-1.26,.24-1.92,.15-1.32,.59-2.69,.38-3.95-1.69-10.15-.83-19.99,1.76-30,2.23-8.63,6.12-16.26,10.29-23.97,3.79-7,6.73-14.47,10.44-21.52,2.39-4.55,4.5-9.56,10.22-11.31,1.91-.59,3.63-1.81,5.04-2.54,2.9,1.84,7.71,4.38,11.92,7.69,4.72,3.71,9.56,4.35,15.2,1.6-.02,.44-.03,.89-.05,1.33-1.14,.37-2.28,.73-3.42,1.1-.19,.44-.38,.88-.57,1.31,11.7,7.33,23.4,14.67,36.01,22.57-.27-2.03-.37-2.76-.47-3.5,.3-.18,.6-.35,.91-.53,1.72,2.15,3.81,4.12,5.02,6.52,.61,1.21,.22,3.79-.73,4.75-4.02,4.03-7.11,8.38-8.6,14.02-.64,2.42-2.84,4.44-4.62,7.07-.42-1.15-.72-1.98-1.44-3.98-1.41,3.56-2.44,6.17-3.47,8.79-.31-.05-.61-.1-.92-.15,.29-2.02,.58-4.04,1.04-7.26-1.97,2.43-3.19,3.94-4.56,5.63,.73,.2,1.38,.37,2.64,.71-3.75,2-6.83,4.36-10.29,5.26-2.63,.68-5.75-.5-8.65-.85,.08-.38,.16-.76,.24-1.14,2.29-1.29,4.57-2.59,6.86-3.88-.26-.58-.53-1.17-.79-1.75-10.74,1.71-20.12,9.16-31.83,7.25-10.81-1.76-21.83-2.27-33.8-3.43-.17,3.03-.95,7.15-.52,11.15,1.22,11.32,4.31,22.61,4.11,33.87-.27,15.47,2.27,31.74-7.33,45.9-.67,.98-.71,3.06-.12,4.12,6.9,12.54,7.81,26.31,8.93,40.15,.91,11.19,2.65,22.32,4.15,33.45,.41,3.08,1.28,6.1,1.03,9.33-5.77-12.75-8.69-26.2-10.45-40.27,.14-.02,1.01-.15,2.5-.36-1.61-5.81-3.49-11.4-4.64-17.13-.85-4.27-.79-8.73-1.08-13.11-.31-4.7-1.53-5.66-6.08-4.87-1.18,.21-2.48-.17-3.61,.14-1.89,.52-3.83,1.16-5.49,2.16-2.06,1.25-3.83,2.96-5.77,4.4-2.11,1.57-3.49,.75-4.36-1.47l-.02,.03Zm84.78-111.19c-2.35-3.33,1.25-3.01,2.56-3.29,7.16-1.5,14.48-2.36,21.54-4.2,2.37-.62,4.26-3.37,6.13-5.36,.7-.75,.4-2.44,1.11-3.15,2.2-2.19,4.77-4.01,6.97-6.2,.78-.78,.89-2.22,1.3-3.36-1.23-.09-2.45-.19-3.8-.29-1.65-1.26-3.49-2.98-5.62-4.2-1.65-.95-3.86-.95-5.49-1.94-4.82-2.92-9.47-6.11-14.2-9.19-1.61-1.05-3.34-1.94-4.84-3.12-1.74-1.36-3.07-3.78-4.98-4.32-7.29-2.03-13.75-5.25-19.38-10.37-2.61-2.38-5.82-2.4-8.31,.51-2.19,2.57-4.54,5.15-6.05,8.12-5.3,10.38-10.49,20.84-15.3,31.46-2.76,6.1-4.73,12.55-7.37,19.72,19.24-.81,37.35,6.13,55.72-.82Zm14.33,3.58c.33,.22,.66,.43,.99,.65,1.43-1.95,2.86-3.91,4.87-6.65-7.18,.71-9.15,2.54-9.28,7.86,1.13-1.88,2.09-3.47,3.05-5.06,.27,.12,.54,.24,.81,.36-.15,.95-.29,1.89-.44,2.84Z"/>
    <path class="cls-1" d="M255.53,140.68c-1.47,.81-2.94,1.61-4.42,2.42-.25-.4-.51-.81-.76-1.21,5.66-3.64,11.32-7.29,16.97-10.93l-.43-.89c-1.84,.85-3.66,1.76-5.52,2.55-1.86,.79-3.18,3.39-6.05,.99-.74-.62-4.09,1.88-6.24,2.95-2.58,1.27-5.17,2.54-7.75,3.81-.24-.44-.48-.88-.72-1.32,2.05-1.17,4.11-2.33,6.66-3.79-1.44-.21-2.44-.66-3.24-.42-7.88,2.31-15.73,4.71-23.57,7.14-.89,.28-1.64,.97-2.53,1.28-3.44,1.19-6.57,2.3-9.53,5.05-3.46,3.21-8.47,4.84-12.97,6.77-1.01,.43-2.71-.74-5.38-1.58,4.39-2.07,7.5-3.54,11.6-5.48-7.01,.4-12.98,6.1-19.9-.2,11.15-4.38,21.46-8.42,31.78-12.47-.12-.31-.24-.62-.36-.92-1.04-.05-2.09-.1-3.07-.15-.09-.27-.13-.4-.17-.53,7.97-1.4,15.94-2.8,23.9-4.2-.03-.44-.07-.87-.1-1.31-.79-.06-1.58-.21-2.36-.17-7.01,.33-14.06,.43-21.03,1.18-3.41,.37-6.7,1.93-10.02,3.03-1.17,.39-2.26,1.02-3.56,1.11,10.85-9.99,25.4-9.68,37.75-13.99-4.96-1.43-12.05-.53-17.3,1.73-3.56,1.53-7.48,2.24-11.24,3.32-.14-.47-.28-.95-.42-1.42,3.44-.83,6.88-1.66,10.32-2.5-.05-.42-.1-.83-.15-1.25-4.07-.69-8.16-1.2-12.14,.97-3.78,2.06-7.5,4.23-11.5,5.94,4.38-5.17,10.31-7.95,17.09-10.42h-7.26c-.03-.38-.06-.77-.09-1.15,12.87-1.21,25.74-2.42,39.74-3.73-4.55-.34-8-.6-11.45-.86,0-.28,0-.56,0-.84,3.04-.59,6.07-1.18,9.11-1.77,0-.27,.02-.53,.02-.8l-6.55-2.16c.08-.25,.16-.49,.25-.74l24.88,5.7c.12-.48,.23-.97,.35-1.45-2.5-.49-5-.98-7.5-1.47,0-.2,0-.4-.01-.6,1.17-.11,2.35-.22,3.83-.36-8.38-1.93-16.42-3.78-24.45-5.63,.09-.39,.17-.78,.26-1.17,11.76,2.01,23.53,4.01,35.78,6.1-1.8,.53-3.34,.98-4.87,1.44,0,.21,.02,.41,.03,.62,1.13,.07,2.27,.13,3.4,.2,.07,.28,.13,.55,.2,.83-2.82,.97-5.63,1.94-9.68,3.33h6.05c-.97,2.73-2.04,2.9-10.29,2.89-3.97,0-7.94,.62-12.49,1.01,20.84,4.23,37.13-5.45,54.08-14.39-1.11,1.05-2.17,2.17-3.35,3.13-1.32,1.08-2.75,2.01-3.79,3.74,4.94-1.62,9.87-3.24,14.81-4.85-7.07,7.42-17.65,4.54-25.52,9.85,5.57-.87,11.15-1.73,17.37-2.7-6.57,5.47-12.99,10.82-19.42,16.18-.34-.34-.69-.67-1.03-1.01,1.23-1.37,2.47-2.75,4.52-5.05-5.97,2.33-10.93,4.27-15.88,6.2-.24-.62-.47-1.24-.71-1.86,3.32-1.11,6.64-2.21,9.96-3.32-.06-.27-.13-.55-.19-.82-7.02,1.43-14.05,2.85-21.52,4.37,1.46,.23,2.52,.4,3.79,.61-7.57,2.81-14.81,5.51-22.06,8.2,.01,.23,.02,.46,.04,.69,1.87,0,3.78,.24,5.6-.04,8.98-1.39,18.26-.82,26.8-5.25,3.13-1.62,7.45-.82,11.15-1.51,1.48-.27,2.71-1.68,4.15-2.4,1.14-.57,2.41-.87,4.15-.39-.75,1.18-1.5,2.36-2.25,3.54,5.58-6.04,14.98-7.79,18.84-17.61-5.33,4.31-9.71,7.84-14.09,11.38-.42-.45-.84-.9-1.26-1.35,3.17-2.87,6.2-5.92,9.57-8.55,2.84-2.22,6.24-3.72,9.06-5.96,2.31-1.84,3.98-4.46,6.23-6.4,1.05-.9,2.8-1,4.23-1.47,.17,.35,.33,.69,.5,1.04-3.76,4.47-7.51,8.95-11.27,13.42,.2,.24,.4,.47,.6,.71,2.64-2.37,5.29-4.73,8.16-7.3-.82,6.03-30.18,27.52-46.86,34.68,0,0,0-.01,0-.01,.83-1.58,1.66-3.15,2.49-4.73-.25-.26-.5-.52-.76-.78-3.03,1.84-6.06,3.68-9.08,5.52h0Zm-28.92-5.4c-8.88,3.21-17.76,6.41-26.64,9.62,.12,.36,.24,.72,.37,1.08,9.39-1.73,18.58-4.04,26.27-10.69Zm37.12-19.27c7.55,3.31,14.3,1.92,21.53-2.3-7.86,.84-14.69,1.57-21.53,2.3Zm-21.09,8.64c-.04-.43-.08-.85-.13-1.28-7.62,.8-15.25,1.61-22.87,2.41,.04,.35,.07,.71,.11,1.06l22.89-2.19Zm20.58-4.18c-3.75-3.15-10.06-2.3-13.84,1.09,4.42-.35,8.63-.68,13.84-1.09Zm-14.9-1.34c-.12-.31-.25-.61-.37-.92-4.31,1.13-8.62,2.27-12.93,3.4,.07,.26,.14,.51,.21,.77,4.36-1.08,8.73-2.17,13.09-3.25Z"/>
    <path class="cls-1" d="M386.15,24.88c2.22,1.47,4.44,2.94,6.1,4.04-.73,.31-2.33,.98-3.93,1.65,1.18,.86,2.35,1.71,3.93,2.86-2.93,3.89-11.61,.82-10.97,9.64-5.83-4.19-10.99-7.47-18.25-6.6,1.16,1.22,1.88,1.97,3.17,3.33h-5.45c3.3,2.24,6.08,4.12,8.86,6l-.52,1.31c-3.79-.68-7.58-1.36-11.37-2.05-.11,.4-.23,.8-.34,1.2,1.63,.58,3.27,1.16,4.9,1.73-.02,.28-.04,.55-.05,.83-7.78-.85-15.55-1.7-23.24-2.54,1.01,2.49,.9,6.28,5.56,5.88-7.7,1.77-13.59-2.2-19.9-6.7,1.19,3.47,9.3,7.26,16.73,9.22,6.25,1.65,11.93,1.22,16.97-3.13-.27-.2-1.01-.76-1.75-1.31,.08-.26,.15-.51,.23-.77,2.87,.41,5.77,.7,8.57,1.37,.4,.09,.35,2.05,.36,2.17-3.42,1.04-6.05,1.55-8.44,2.61-7.85,3.48-16.02,1.89-24.09,1.75-.53,0-1.32-.52-1.54-.32-5,4.62-8.05-.14-11.6-2.47-.18,.33-.35,.66-.53,.99,4.28,2.46,8.56,4.92,13.34,7.67-9.24,1.17-16.63-.83-21.92-8.39,3.54,1.91,7.08,3.81,10.83,5.83-.04,.08,.41-.71,.38-.74-4.53-2.88-4.35-10.04-10.69-11.56-1.18-.28-1.64-3.56-2.99-6.76,3.38,2.43,5.78,4.15,8.01,5.75,1.7-5.85-4.23-5.15-7.19-7.36,10.61,.3,18.78,6.55,28.05,10.14-6.7-4.24-13.39-8.47-20.09-12.71,.04-.33,.08-.67,.12-1,13.52,1.95,27.04,3.9,40.63,5.86-1.71-4.06,1.74-8.51,6.28-9.62-1.13-.47-1.94-.8-2.74-1.13-.02-.31-.03-.62-.05-.93,4.17-1.09,8.34-2.17,12.51-3.26-.05-.37-.11-.75-.16-1.12-1.02-.27-2.03-.55-3.73-1,1.44-1.1,2.56-1.92,3.63-2.8,1.38-1.14,3.01-2.14,4.01-3.56,2.63-3.74,10.66-5.72,15.02-4.49,3.35,.94,7.14,.33,10.73,.46,2.43,.09,4.85,.28,6.39-.39,4.54-4.52,8.81-9.35,13.71-13.44,2.66-2.22,4.5-.7,4.32,2.87-.11,2.26-.52,4.6-.12,6.78,.82,4.43,2.06,8.71,6.89,10.8,1.25,.54,2.05,2.11,3.06,3.2-.13,.19-.24,.38-.35,.58,.48,3.08,.95,6.15,1.43,9.23l-1.46,.34c-1.46-2.71-2.92-5.41-4.53-8.38-.06,.03,.57-.31,1.65-.91-1.16-1.09-2.21-2.06-3.33-3.1-2.89,5.85,1.72,9.12,4.04,13.01,1.42,2.39,3.47,4.41,5.16,6.65,.25,.33,.27,1.28,.03,1.45-.46,.33-1.38,.63-1.74,.39-.96-.65-1.93-1.47-2.53-2.44-.87-1.41-1.02-3.46-2.16-4.48-8.88-7.96-7.2-19.79-11.72-30.32-3.66,5.47-7.39,10.61-10.64,16.03-1.93,3.21-5.06,4.16-12.27,1.9,4.12-.48,7-.82,10.55-1.24-4.14-3.01-19.51-1.63-23.81,1.51-2.2-2.45-4.63-2.12-7.42-.68,2.33,4.77,5.01,1.05,7.44,.66Zm-10.85,4.03c3.26,1.51,6.35,2.93,9.68,4.48,.3-1.03,.64-2.2,.84-2.91-2.55-1.03-5.07-1.41-6.64-2.83-2.5-2.25-2.98-.8-3.88,1.27Zm5.48,8.67c0-.83,.16-1.93-.08-2.92-.1-.41-1.57-.87-1.58-.85-1.55,2.86-3.14,.22-4.68,.06-1.72-.17-3.44-.32-5.16-.47-.02,.3-.04,.59-.06,.89,3.72,1.06,7.44,2.12,11.57,3.29Zm-60.43,6.52c-.3,.22-.61,.43-.91,.65,2.05,3.27,4.11,6.55,6.16,9.82,.43-.29,.86-.57,1.29-.86-2.18-3.2-4.36-6.41-6.54-9.61Z"/>
    <path class="cls-1" d="M257.19,68.9c-.52-.59-1.05-1.18-2.26-2.54,8.21,2.03,15.54,3.62,22.74,5.69,7.36,2.11,14.49,5.14,22.47,3.45,1.23-.26,2.76,.85,4.15,1.33l-.14,1.31c-1.78,.3-3.56,.59-5.34,.92-1.58,.3-3.43,.23-4.69,1.04-6.57,4.25-12.88,3.23-19.41-.14-3.04-1.57-6.45-2.43-9.7-3.61-.21,.61-.42,1.22-.63,1.83,7.19,2.43,14.39,4.86,21.83,7.38-1.28,.19-2.72,.78-3.98,.52-7.03-1.45-14.03-3.08-21.02-4.71-.75-.18-2-.68-2.03-1.11-.27-3.65-3.03-1.79-4.62-2-1.25-.17-2.63,.64-3.93,1.01,3.81,3.83,9.39,5.6,15.18,6.56,5.51,.91,11.12,1.24,16.56,1.81-9.11,6.09-18.28,2.41-27.45-.59l-.3,1.41c7.26,1.91,14.53,3.81,21.8,5.72-6.26,4.23-14.33-1.43-21.61,2.72,2.87,.63,5.37,1.17,8.17,1.79-.98,.55-1.76,.98-2.54,1.41,.05,.27,.09,.55,.14,.82h6.35c.05,.45,.1,.89,.14,1.34-1.98,.32-4.06,1.22-5.91,.87-9.78-1.86-19.37-3.87-28.63-8.32-7.5-3.61-16.46-4.18-24.77-6.15-1.47-.35-2.87-.97-4.31-1.46,.09-.45,.19-.9,.28-1.36,17.88,1.85,35.76,3.7,52.8,5.47-2.49-2.43-13.33-5.07-14.82-2.53-3.01-2.78-5.95-5.5-8.88-8.21,1.49,.45,3.04,.76,4.46,1.38,3.93,1.73,7.81,3.59,11.71,5.39-3.7-2.91-7.79-4.99-12-6.76-1.21-.51-2.8-.12-4.22-.15-4.25-1.7-8.5-3.4-12.74-5.11,.09-.36,.18-.72,.27-1.07,4.6,1.28,9.19,2.56,13.79,3.83,.11-.25,.22-.51,.33-.76-1.96-1.16-3.91-2.32-5.87-3.48,.13-.24,.26-.48,.39-.72,8.96,4.06,17.91,8.12,26.87,12.17,.16-.34,.33-.68,.49-1.02-5.5-2.56-11-5.12-17.51-8.14,5.33,.32,9.51,.57,13.7,.83,.11-.48,.21-.95,.32-1.43-3.68-1.32-7.35-2.65-11.03-3.97-.21,.4-.41,.79-.62,1.19,.05-1.18,.11-2.36,.18-4.02,2.78,1.34,5.25,2.53,7.73,3.72,.16-.25,.32-.49,.47-.74-3-1.93-5.99-3.86-9.23-5.95,6.31-1.93,11.34,1.87,16.81,3.16,5.69,2.1,11.39,4.2,17.08,6.29,.13-.39,.25-.79,.38-1.18-5.81-1.72-11.62-3.43-17.43-5.15Zm4.87,7.64c.23-.49,.46-.99,.69-1.48-4.62-2.2-9.24-4.41-13.87-6.61-.2,.44-.4,.87-.6,1.31,4.59,2.26,9.19,4.52,13.78,6.78Zm25.5,3.47c.06-.3,.13-.59,.19-.89-4.21-.91-8.41-1.82-12.62-2.73-.07,.31-.13,.62-.2,.92,4.21,.9,8.42,1.79,12.63,2.69Zm-44.18,14.92c-.08,.31-.16,.61-.24,.92l10.88,2.92c.08-.33,.17-.65,.25-.98-3.63-.96-7.27-1.91-10.9-2.87Z"/>
    <path class="cls-1" d="M298.8,490.81c1.83-.95,3.58-2.12,5.51-2.79,6.1-2.13,6.89-6.48,6.97-12.41,.07-5.08,2.6-10.14,4.17-15.17,.15-.48,1.29-.66,2.72-1.32-.58,1.98-.96,3.25-1.4,4.75h4.68c.19,4.38,.31,8.59-3.83,10.59,1.54,.81,3.24,1.71,4.94,2.6-.1,.56-.21,1.12-.31,1.68-2.26,.7-4.53,1.4-6.57,2.04-.52,.82-1.25,1.84-1.83,2.95-.33,.62-.65,1.94-.55,1.99,1.23,.55,2.55,.92,4.25,2.25-1.94,.23-3.87,.47-5.81,.7-1.08,.13-2.26,.05-3.19,.49-.38,.18-.58,1.95-.28,2.16,.87,.6,2.03,.78,2.53,1.63,2.52,2.37,5.03,4.74,7.9,7.44-4.16,1.14-3.59,2.67-1.38,4.34,1.77,1.33,3.61,2.56,5.5,3.9,.14-1.56,6.38-2.07,1.72-5.14,2.16-3.24,4.33-6.5,6.72-10.1-5.39-1.17-5.65-2.07-3.13-5.32,4.16-5.38,8.98-10.49,11.89-16.5,2.85-5.88,2.15-12.62-.13-19.08-.78-2.22,.16-5.06,.36-7.61,.17-2.23,.51-4.44,.59-6.67,.1-3.06,.03-6.12,.03-9.58-4.17-1.27-4.88-2.42-3.4-8.49,.37,1.49,.75,2.98,1.32,5.25,.53-1.75,.86-2.88,1.45-4.85,.67,2.19,1.12,3.65,1.56,5.12,.97-3.79,3.84-7.24,.99-11.27-.52-.74,1.01-2.92,1.59-4.44,.63,.13,1.26,.27,1.88,.4-.27,5.55-.47,11.11-.81,16.65-.56,8.93-1.28,17.85-1.79,26.79-.11,2-.05,4.2,.67,6.01,2.6,6.56,.63,12.45-2.8,17.78-3.73,5.8-6.25,11.77-7.86,18.54-1.34,5.61-4.86,10.71-7.47,16-2.15,4.37-4.56,8.62-6.54,13.05-3.48,7.79-11.21,9.27-17.01,3.03-6.69-7.22-8.33-19.47-4.8-28.7,.34-.9,1.16-1.62,2.29-3.15-.65,4.37-1.27,7.72-1.58,11.1-.1,1.07,.3,2.87,1.03,3.23,4.74,2.34,5.37,6.05,4.24,10.65-.09,.37,1.29,1.55,1.42,1.47,2.63-1.7,3.51,.71,5.27,1.61,1.12,.58,3.87-1.58,5.63-2.87,.7-.51,.37-2.46,1.07-2.92,5.24-3.5,2.15-6.55-.56-9.3-2.73-2.77-6.02-5-8.8-7.73-1.48-1.46-2.34-3.52-3.59-5.23-.96-1.31-2.11-2.48-3.18-3.72-.76-.61-1.51-1.21-2.27-1.82Z"/>
    <path class="cls-1" d="M391.88,307.79c1.49-5.32,6.21-7.52,11.12-5.47,1.65,.69,3.63,.59,5.76,.89-.53,2.26-.26,3.5,2.76,4.04,2.05,.37,3.68,3.25,5.43,5.07,.82,.85,1.36,2.54,2.23,2.7,8.54,1.53,7.45,9.55,10.3,14.89,.92,1.73,1.84,3.46,2.82,5.16,.65,1.12,1.41,2.18,2.12,3.27-1.19,.67-2.37,1.34-4.88,2.75,2.9,1.43,5.3,2.45,7.52,3.78,1.59,.95,2.93,2.31,4.2,4.24-2.19-.48-4.39-.96-7.33-1.6,2.57,11.49,5.75,22.83-5.25,32.76,0-1.88-.45-3.29,.07-4.06,5.97-8.79,5.71-17.66,.96-26.85-.97-1.88-3.13-3.95-.6-6.56,.32-.33-1.93-2.85-2.59-4.51-1.8-4.51-3.45-9.09-5.03-13.68-1.99-5.76-5.28-9.16-12-9.62-8.55-.59-16.98-3.1-25.52-3.48-8.15-.36-15.59-2.86-23.17-5.13-2.13-.64-3.96-2.26-5.92-3.43,.22-.57,.44-1.13,.66-1.7,2.78,.65,5.57,1.3,9.39,2.19-1.61-1.72-2.5-2.68-3.4-3.64l.68-.91c1.71,1.21,3.67,2.2,5.09,3.69,3.23,3.4,7.05,3.1,10.91,2.03,3.91-1.08,7.7-2.58,11.53-3.89,1.33,3.22,1.33,3.2-3.21,4.06-2.22,.42-4.42,.91-6.63,1.36,.02,.38,.05,.76,.07,1.15,3.96,.18,7.91,.36,11.86,.54,1.83,.65,3.68,1.25,5.48,1.99,.94,.38,1.78,.99,3.01,1.69,1.36-1,3.37-2.47,5.46-4.01-4.81-4.52-9.37-2.4-13.91,.29Z"/>
    <path class="cls-1" d="M313.31,94.02c1.73-5.6,4.02-10.39,10.42-11.7,2.06-.42,3.65-3.09,5.46-4.73-.31-.37-.62-.73-.93-1.1-2.38,1.22-4.76,2.44-7.13,3.67l-.86-1.6c9.11-4.92,18.21-9.85,28.45-15.39-14.21,5.26-27.94,4.62-41.46,5.6-.03,.42-.06,.83-.1,1.25,5.44,.54,10.88,1.08,16.75,1.66-.88,.64-1.51,1.48-2.23,1.55-6.23,.63-12.06,4.62-18.76,1.91-2-.81-4.58-.12-6.87-.34-11.09-1.09-21.01-6.08-31.61-8.82l.48-1.79c3.82,.96,7.66,1.85,11.46,2.92,3.92,1.1,7.67,3.6,13.33,.77-7.42-1.74-13.62-3.2-20.76-4.87,8.63-4.22,14.61,3.59,22.03,2.64-5.3-2.39-10.49-4.74-15.69-7.09,.16-.4,.31-.8,.47-1.2,5.93,2.16,11.72,4.97,17.84,6.29,6.09,1.31,12.51,1.12,18.88,.86-1.92-.72-3.85-1.45-5.77-2.17,.12-.43,.24-.86,.36-1.29,6.41,1.49,12.75,3.67,19.25,4.29,6.47,.62,12.91-1.1,18.96-3.71-4.23-1.36-9.08,1.85-12.63-2.37h23.6c-6.74,5.03-14.34,10.37-21.54,16.19-7.35,5.94-14.3,12.37-21.42,18.59Zm-24.15-24.22c-.06,.55-.12,1.1-.18,1.65h15.12c.02-.22,.03-.45,.05-.67-5-.33-9.99-.65-14.99-.98Z"/>
    <path class="cls-1" d="M358.38,381.19c-1.65-1.54-3.3-3.07-4.95-4.61l-.86,.28c.75,1.59,1.19,3.44,2.29,4.73,4.81,5.65,11.92,10.38,14.23,16.86,3.12,8.73,7.7,18.47,1.97,28.33-2.99,5.15-2.07,10.71-1.52,16.28,.37,3.7,.07,7.46-.56,11.08-1.43-4.3-3.7-8.53-4.04-12.91-.34-4.39,.47-9.26,2.16-13.34,2.31-5.56,3.09-10.61,2.06-16.74-1.52-8.97-4.93-16.46-11.38-22.71-.49-.47-1-.93-1.56-1.31-.55-.36-1.17-.61-1.8-.92-.95,4.45-1.88,8.77-2.81,13.09-.47,0-.95,0-1.42-.01,3.15-10.56-1.34-19.14-6.76-27.61-.19,1.22-.38,2.43-.57,3.65l-.75,.05c-.33-1.95-.66-3.9-1-5.85,.37-.11,.74-.22,1.1-.33-4.85-5.22-11.19-9.68-14.25-15.79-7.64-15.29-18.85-27.86-28.91-41.31-.72-.97-2.26-1.29-3.3-2.07-.56-.41-.89-1.14-1.32-1.73,.8-.18,1.88-.77,2.34-.46,1.95,1.36,3.86,2.84,5.51,4.54,2.82,2.91,5.43,6.02,8.12,9.05,2.32,2.61,4.63,5.18,8.33,1.49-.38,.77-.56,1.85-1.19,2.27-3.34,2.29-2.4,4.68-.44,7.23,3.19,4.17,6.34,8.37,10.7,12.52-.15-1.85,.11-3.87-.54-5.53-1.75-4.48-1.64-4.82,2.07-4.89,.75,2.63,1.53,4.86,1.99,7.16,.19,.94-.19,2.05-.47,3.03-.95,3.31-.79,5.95,1.97,8.8,6.26,6.48,13.34,12.49,16.05,21.65,.19,.64,.61,1.22,.92,1.83,.21-.54,.42-1.08,.63-1.63h5.34c.11,.09,.22,.18,.33,.27,.76,1.86,1.52,3.72,2.28,5.58l-.02-.03Z"/>
    <path class="cls-1" d="M25.13,409.35c6.87-3.17,9.26-11.3,14.55-16.85,1.38-1.45,2.62-3.06,4.15-4.33,3.5-2.91,3.02-6.35-1.53-8.4,1.38-2.8,1.44-5.14-1.74-7.18-1.01-.64-.61-3.48-.99-6.39-1.43,1.76-2.4,2.86-3.25,4.04-2.69,3.7-5.09,7.66-8.12,11.06-1.25,1.41-3.86,1.56-5.77,2.46-1.03,.48-1.97,1.24-2.82,2.01-2.15,1.95-4.22,3.97-7.05,5.46,1.09-2.86,2.17-5.73,3.22-8.47,11.85-.23,15.39-11.22,21.72-17.51-.17-2.14-.36-3.84-.38-5.55,0-.32,.71-.88,1.11-.9,.43-.02,1.12,.38,1.28,.76,3.44,8.47,6.94,16.92,10.08,25.51,.41,1.12-.8,3.23-1.82,4.39-12.52,14.22-21.74,29.86-22.17,49.48-.16,7.25-.75,14.49-.76,21.74,0,3.26,.94,6.53,1.7,11.31-1.99,3.05-5.57-2.09-8.28-.78,.44-3.65,.85-7.15,1.31-10.96,.88,.6,1.59,1.09,3.05,2.09-1.21-4.08-2.22-7.47-3.31-11.14,5.56-2.26,.27-8.56,2.69-11.58-2.15-1.76-4.07-2.87-5.24-4.51-.44-.62,.82-2.46,1.57-4.43,.88,2.55,1.31,3.97,1.91,5.31,.06,.13,1.69-.23,1.68-.33-.07-2.17-.27-4.33-.38-5.64,.95-3.24,1.63-5.95,2.55-8.57,1.02-2.91,2.49-5.69,3.26-8.65,.22-.85-1.34-2.15-2.22-3.45Z"/>
    <path class="cls-1" d="M52.45,386.78c3.1,4.76,6.48,9.37,6.98,15.42,.08,.99,.57,2.03,1.11,2.9,2.62,4.2,5.64,7.79,3.83,13.79-.94,3.11-.48,6.25-4.49,7.4,2.79,2.9,5.23,5.43,8,8.3,2.4-.86,5.47-1.8,2.63,3.5-.21,.38,.24,1.22,.55,1.75,4.04,7,7.3,14.5,14.76,18.99,2.37,1.43,3.81,4.39,5.68,6.66-3.01,3.48,5.55,6.65,1.62,11.66-2.98-4.19-5.73-8.08-8.49-11.96-1.87-2.63-3.28-5.91-5.75-7.74-3.9-2.89-6-6.72-8.46-10.65-3.71-5.92-8.52-11.13-12.42-16.94-1.77-2.64-3.52-6.01-3.49-9.03,.12-10.08,.06-20.05-2.88-29.81-.37-1.23-.26-2.6-.37-3.9,.4-.12,.8-.24,1.19-.35Zm5.98,24.19h-.74c-.38,4.41-.76,8.8-1.13,13.2,.62,.02,1.25,.04,1.87,.06v-13.26Z"/>
    <path class="cls-1" d="M451.22,121.05c-.15-.76-.05-2.16,.31-2.3,.73-.28,2.07-.24,2.54,.26,4.63,4.82,9.29,9.64,13.57,14.77,1.04,1.24,.7,3.63,1.15,6.48-3.55-1.16-5.97-1.95-7.87-2.58-.81-2.84,5.26-3.28,.7-6.41-1.16,1.51-2.11,3.21-3.51,4.34-.54,.43-3.02-.31-3.1-.76-.65-3.9-2.97-3.51-5.96-2.42,.9,2.69,.88,5.05-3.4,4.62,.5-.98,.95-1.85,1.6-3.14-4.73,.03-7.93-2.13-10.01-6.24-.36-.7-2.21-.65-3.86-1.06-1.55-4.98-3.28-10.5-5.07-16.25-.76-.23-1.65-.49-2.54-.76,.94-1.49,1.87-2.99,3.54-5.63,2.21,5.09,3.78,9.09,5.66,12.94,2.04,4.18,3.59,9.08,6.85,12.01,1.93,1.73,6.77,.33,10.27,.02"/>
    <path class="cls-1" d="M260.43,411.4c2.43-1.27,3.33-2.93,1.92-5.64-.32-.62,.45-1.96,.97-2.81,.85-1.37,1.92-2.6,2.89-3.89-.41-.35-.81-.7-1.22-1.04-.73,.52-1.46,1.05-2.19,1.57-.39-.3-.77-.6-1.16-.89,1.12-1.42,1.96-3.45,3.43-4.14,2.54-1.19,5.48-1.56,8.25-2.28-.72,2.32-1.1,4.82-2.22,6.93-3.65,6.88-7.39,13.72-11.5,20.33-1.03,1.66-3.53,3.22-5.37,3.24-1.07,.01-2.64-2.98-3.19-4.85-1.32-4.43-2.05-8.9,.02-13.5,1.4-3.11,3.11-4.62,6.56-3.48,.42,3.63-.8,7.66,2.77,10.39-1.96,.44-4.64,.29-5.66,1.51-.87,1.04,.15,3.68,.34,5.61,2.02-2.66,3.7-4.85,5.37-7.05Z"/>
    <path class="cls-1" d="M411.87,277.11c-2.04-2.65-3.54-4.6-5.05-6.56-.43,.05-.86,.11-1.28,.16,4.67,5.9,3.67,12.39,3.46,19.4-3.24,0-6.48,.57-9.28-.3-1.03-.32-1.02-4.01-.47-6.47,.61,1,1.21,2,1.82,3.01,.35-.06,.7-.11,1.05-.17-.13-2.39-.26-4.78-.4-7.17-.26-.06-.52-.12-.79-.18-.38,.79-.76,1.59-1.67,3.48-.94-4.19,1.02-6.28,2.43-8.57,1.05-1.71,2.11-3.47,2.77-5.34,.99-2.77,1.35-5.81,2.58-8.45,.48-1.02,2.6-1.62,4.01-1.68,.66-.03,1.56,1.58,2.07,2.58,2.66,5.18,2.02,10.18-1.25,16.25Z"/>
    <path class="cls-1" d="M419.79,545.43c-.05,.87-.1,1.74-.15,2.81-6.82-1.36-11.96-5.11-15.21-11.37-.46-.89-.61-2.1-.49-3.11,.78-6.46-2.28-11.57-5.52-16.69-.52-.83-.33-2.15-.36-3.24-.05-1.84-.01-3.69-.01-6.4,.54,0,2.4-.42,2.68,.08,.88,1.52,1.32,3.35,1.64,5.11,.87,4.86,.47,10.35,5.37,13.35,1.35,.83,3.79-.04,5.71-.26,1.84-.22,3.65-.61,5.12-.87,.1-.98,.09-3.92,.46-3.97,2.36-.31,4.81,.01,7.22,.13-.03,.52-.05,1.05-.08,1.57h-5.22c-.02,.42-.05,.85-.07,1.27h13.59c.22,.35,.45,.69,.67,1.04-1.14,.83-2.17,2.1-3.44,2.4-6.3,1.51-12.72,2.57-18.99,4.22-2.32,.61-4.32,2.39-6.47,3.64,2.02,2.56,3.79,5.38,6.15,7.56,1.07,.99,3.32,.64,4.99,1.05,.72,.18,1.34,.73,2.01,1.11,.14,.18,.28,.36,.41,.55Z"/>
    <path class="cls-1" d="M382.87,476.6c1.01,1.38,2.37,2.64,2.95,4.18,1.86,4.93,3.57,9.93,5.04,14.98,.45,1.54-.19,3.37-.1,5.06,.07,1.24,.17,3.24,.88,3.57,4.78,2.22,3.25,6.55,3.71,10.3-4.07-2.99-6.92-6.83-8.62-11.57-3.79-10.59-7.46-21.22-11.47-31.72-1.29-3.38-3.52-6.41-4.46-10.18,1.9,2.14,3.8,4.29,6.16,6.94,.33-1.52,.5-2.3,.86-3.95,1.89,4.62,3.48,8.5,5.07,12.38-.4,.37-1.21,.84-1.15,1.09,1.08,4.28,2.26,8.53,3.43,12.79,.28-.08,.57-.16,.85-.23-1.04-4.55-2.09-9.1-3.13-13.64Z"/>
    <path class="cls-1" d="M355.78,375.37c-.78-2.25-1.57-4.5-2.35-6.76-.39,.1-.77,.19-1.16,.29-.33,1.08-.66,2.16-1.26,4.1-1.35-1.58-2.84-2.56-3.17-3.85-.81-3.13-.89-6.45-1.64-9.6-.97-4.11-3.75-2.07-5.94-1.35-2.41-3.31-5.21-6.27-6.87-9.78-.88-1.87,.2-4.66,.93-7.17,2.62,3.12,6,5.63,5.49,10.37-.09,.82,.64,2.37,1.22,2.5,1.33,.29,2.9,.15,4.18-.33,.52-.19,.7-1.7,.75-2.63,.06-1.04-.19-2.09-.31-3.13,.47-.05,.94-.1,1.4-.16,.43,2.52,.85,5.04,1.28,7.56-.27,.03-.54,.06-.81,.08,1.39,3.29,2.77,6.57,4.02,9.54,1.75-1.15,2.97-1.96,4.18-2.76,.45,1.28,.81,2.59,1.36,3.83,1.19,2.67,2.56,5.26,3.72,7.94,1.54,3.55,2.95,7.15,4.38,10.65-4.73,2.44-4.51-2.63-6.82-3.53,0,0,.02,.03,.02,.03,0-1.11,0-2.22,0-4.28,1.28,1.92,2.02,3.04,2.76,4.15,.18-.1,.36-.2,.54-.3-.92-2.25-1.84-4.5-2.78-6.82-1.27,.76-2.03,1.21-2.8,1.67-.11-.09-.22-.18-.33-.27Z"/>
    <path class="cls-1" d="M449.16,92.7c-2.59-.31-5.56,.08-7.69-1.08-4.24-2.3-8.02-5.45-11.64-8,.1,4.62,2.97,10.02,6.9,11.33-1.41-1.55-2.49-2.75-3.57-3.94,.17-.31,.33-.62,.5-.93,3.16,1.24,6.31,2.49,10.44,4.12-1.57,1.27-3.33,3.48-4.12,3.18-2.71-1.05-6.73,2.05-8.3-2.78-1.97-6.04-4.45-11.92-6.55-17.93-.15-.42,.95-1.72,1.65-1.89,1.14-.28,2.42,.03,3.78-.96,.2,.16,.58,.33,.58,.49q-.28,6.44,6.35,6.03c3.04-.19,5,.77,6.27,3.89,1.19,2.93,3.32,5.48,5.04,8.19,.12,.09,.23,.19,.34,.29Z"/>
    <path class="cls-1" d="M419.62,368.97c-.02-.89-.03-1.79-.05-2.68,2.82,.66,5.74,1.07,8.39,2.14,.82,.33,1.66,3.04,1.18,3.71-2.58,3.57-5.27,7.19-8.52,10.13-3.73,3.37-8.1,6.04-12.19,9.01l-.89-.8c.79-5.68,1.41-11.4,2.52-17.02,.2-1,2.32-1.76,3.67-2.35,1.9-.84,3.91-1.42,5.88-2.11,1.96,3.7-.11,5.26-3.25,6.57-1.88,.78-3.52,2.14-5.27,3.23,.21,.46,.41,.92,.62,1.37,2.89-.21,5.84-.17,8.62-.84,.55-.13,.2-3.08,.73-4.57,.36-1,1.48-1.77,2.36-2.54,.74-.64,1.62-1.11,2.44-1.66-.05-.35-.1-.7-.15-1.06-2.03-.18-4.06-.35-6.09-.53Z"/>
    <path class="cls-1" d="M422.56,335.46c-.85,3.99-1.71,7.97-2.62,12.25h6.76c.18,.38,.35,.76,.53,1.14-1.53,.95-3.02,1.99-4.61,2.82-1.31,.68-2.87,.93-4.07,1.75-.65,.44-1.27,1.96-.98,2.47,.45,.78,1.64,1.39,2.61,1.56,1.42,.26,2.93,.07,4.43,.52,5.15-2.33,5.96-1.87,6.46,3.95,.13,1.55,.58,3.07,.98,5.08-4.42-2.2-8.03-4.1-11.75-5.77-.8-.36-2.38-.32-2.84,.21-.72,.81-1.44,2.78-1.03,3.24,3.73,4.17-.4,3.71-2.49,4.45-.57,.2-1.17,.31-2.02,.53,2.69-11.81,5.3-23.25,7.9-34.69,.92,.17,1.84,.33,2.75,.5Z"/>
    <path class="cls-1" d="M333.25,86.28c8.73-16.71,27.33-22.12,40.17-34.73-2.15-.87-4.44-1.81-6.73-2.74,.1-.23,.21-.47,.31-.7,2.97,.31,5.95,.62,7.63,.79,2.72-.83,4.46-1.36,6.2-1.89,.12,.39,.23,.77,.35,1.16-15.67,13.07-31.35,26.14-47.02,39.21l-.92-1.1Z"/>
    <path class="cls-1" d="M467.65,95.01c-2.59-7.46-8.29-12.59-13.84-17.68-4.39-4.02-4.26-9.44-5.79-14.39-.68-2.22-1.75-4.31-2.51-6.51-.31-.89-.25-1.9-.35-2.85,1,.3,2.61,.32,2.89,.95,2.45,5.41,4.58,10.97,7,16.4,.7,1.58,.54,4.91,4.08,3.02,.16-.08,1.01,.8,1.3,1.35,2.67,5.25,5.35,10.5,7.87,15.82,.52,1.11,.38,2.54,.54,3.82-.4,.03-.79,.05-1.19,.08Z"/>
    <path class="cls-1" d="M19.98,325.18c7.73,2.07,9.92,9.64,15.65,13.96-1.97-3.83-3.95-7.66-6.16-11.96,7.55,1.25,8.04,8.59,12.58,12.67-4.96,1.66-3.83,4.07-1.25,6.66-.89,1.14-1.69,2.18-2.58,3.33-6.15-8.32-12.19-16.49-18.23-24.67Z"/>
    <path class="cls-1" d="M32.67,510.02c2.64-2.23,5.28-4.46,8.04-6.79,1.71,3.14,4.67,3.65,8.71,2.15,1.75-.65,4.6-.25,6.09,.84,1.32,.96,1.46,3.55,2.12,5.42-1.61,.12-3.22,.3-4.84,.33-2.59,.06-5.18,.01-8.33,.01,.03,.06-.27-.69-.5-1.29-4.58,.4-8.45,4.69-13.79,1.22,.98-.74,1.73-1.31,2.48-1.88,0,0,.02-.02,.02-.02Z"/>
    <path class="cls-1" d="M307.98,356.71h-7.94c-.72-1.61-1.75-3.9-2.95-6.56-1.19,.05-2.97,.47-4.55,.1-1.55-.36-2.92-1.52-4.37-2.33-2.63-1.47-5.43-2.72-7.87-4.46-4.47-3.2-8.73-6.69-13.08-10.06,.32-.45,.63-.9,.95-1.34,13.53,7.81,27.05,15.63,40.58,23.44-.26,.41-.51,.82-.77,1.22Z"/>
    <path class="cls-1" d="M280.14,255.79c-2.78,2.53-3.03,5.51-1.39,8.9-1.25,.57-2.44,1.11-3.89,1.77,2.78,.29,5.22,.55,7.98,.83-.34,.93-.41,1.91-.8,2.06-3.78,1.47-7.55,3.05-11.47,4.07-2.08,.55-4.07-.27-3.4-3.76,2.37,1.76,4.47,2.55,5-1.14-2.57-.67-5.05-1.32-8.82-2.31,4.46-2.74,10.63,.98,12.03-6.39-2.29,1.06-3.94,1.82-5.59,2.58,3.72-2.78,2.29-10.55,9.23-10.05,.4,.4,.81,.81,1.21,1.21-1.22,.45-2.44,.89-3.66,1.34,.21,.29,.42,.58,.63,.87,.89-.09,1.79-.18,2.68-.27l.26,.28Z"/>
    <path class="cls-1" d="M442.75,145.62c1.75-2.87-.49-5.05-3.44-6.37-1.7-.76-3.89-.45-5.94-.15q-1.36-1.61,4.72-3.33c-1.37-1.19-2.79-2.43-4.2-3.66,.26-.46,.52-.93,.78-1.39,1.43,.77,3.13,1.28,4.26,2.37,4.06,3.91,7.85,8.09,11.92,11.98,1.08,1.03,2.82,1.35,4.22,2.06,1.28,.65,3,1.1,3.65,2.17,.72,1.17,.43,2.95,.59,4.47-1.36-.28-2.89-.26-4.05-.9-2.1-1.16-3.9-2.85-5.97-4.08-1.99-1.17-4.17-2.03-6.53-3.16Z"/>
    <path class="cls-1" d="M443.3,258.52c-.41,1.19-.64,1.87-.87,2.54,1.41,.3,2.83,.6,4.68,1-.74,1.22-1.25,2.06-2.05,3.39,1.32-.1,2.23-.17,3.23-.25-1.98,6.18-1.27,8.4,4.23,10.41-1.43-2.11-2.31-3.42-3.3-4.89,1.07-1.86,2.19-3.79,3.24-5.63,.85,3.22,1.95,5.97,2.15,8.79,.09,1.2-1.83,3.67-2.64,3.59-2.94-.3-5.8-1.43-8.7-2.24,.34-.58,.68-1.16,.92-1.55-1.8-1.22-3.74-2.55-5.69-3.87,.69-.39,1.37-.77,2.06-1.16,.69-1.47,2.25-4,1.94-4.25-2.1-1.72-4.59-2.95-7.26-4.53,2.24-.38,4.68-.78,8.03-1.35Z"/>
    <path class="cls-1" d="M247.36,147.21c-11.88,10.19-23.75,20.38-36.67,31.46,5.31-8.66,12.71-13.61,19.15-19.45-.24-.37-.48-.73-.72-1.1-7.6,3.57-15.2,7.14-22.8,10.71-.16-.24-.33-.49-.49-.73,2.8-1.79,5.42-4,8.43-5.29,10.53-4.53,21.4-8.32,30.47-15.68,.51-.42,1.73,.03,2.62,.08,0,0,0,0,0,0Z"/>
    <path class="cls-1" d="M436.9,284.92c.43,1.34,1.24,2.7,1.17,4.02-.06,1.06-1.05,2.2-1.87,3.06-2.26,2.36-4.54,4.71-7.04,6.8-.76,.64-2.24,.58-3.39,.56-1.39-.03-2.77-.37-5.22-.73-1.45-2.99-.23-6.58,2.93-9.85,2.22,.17,4.47,.34,6.71,.52-.02,.41-.03,.82-.05,1.23-1.92,1.28-3.85,2.56-5.77,3.84,.08,.14,.17,.29,.25,.43,2.7-1,5.4-1.99,8.58-3.17-.78-1.29-1.62-2.67-2.04-3.36,1.94-1.12,3.73-2.16,5.52-3.19l.23-.15Z"/>
    <path class="cls-1" d="M412.19,517.93c-1.09,1.21-2.18,2.42-3.28,3.63-.58-.1-1.16-.2-1.74-.3-.34-4.06-.77-8.12-.95-12.19-.04-.91,.7-2.55,1.25-2.63,.99-.15,2.23,.47,3.16,1.08,1.8,1.18,3.29,2.93,5.21,3.81,3.27,1.51,2.64,3.95,1.36,5.93-.67,1.04-2.91,1.06-4.44,1.54-.2-.29-.39-.58-.59-.87Z"/>
    <path class="cls-1" d="M404.26,478.35c3.17,6.48,6.36,12.95,9.45,19.47,.27,.57-.08,2.11-.36,2.17-4.11,.86-7.03,6.01-12.44,3.21,2.42-1.73,4.71-3.37,7-5.01-.48-.01-.96-.03-1.44-.04-.31-1.3-.69-2.59-.91-3.91-.22-1.33-.24-2.69-.44-4.03-.05-.35-.66-.63-.69-.97-.28-3.54-.5-7.08-.73-10.62,.18-.1,.37-.19,.55-.29Z"/>
    <path class="cls-1" d="M345.67,323.9c.47,2.38,1.21,4.74,1.35,7.14,.17,2.76-.33,5.43-4.35,4.63,2.31,6.14,3.12,10.3-.45,12.54-3.24-5.14-6.48-10.27-9.72-15.39,.42-.3,.84-.6,1.26-.89,.72,.67,1.39,1.41,2.18,2,.88,.65,2.23,1.87,2.75,1.6,1.42-.72,3.01-1.87,3.61-3.25,1.18-2.72,1.73-5.71,2.54-8.59,.28,.07,.55,.15,.83,.22Z"/>
    <path class="cls-1" d="M60.34,186.03c1.14-1.57,1.7-2.34,2.63-3.62-3.35,.47-6.05,.84-8.75,1.22-.14-.39-.28-.78-.42-1.18,1.91-1.02,3.85-1.99,5.72-3.08,.8-.47,1.39-1.32,2.2-1.77,2.52-1.4,5-3.31,7.7-3.75,1.16-.19,3.27,2.56,4.06,4.36,.3,.68-1.65,2.92-3.01,3.64-2.9,1.54-6.08,2.55-10.13,4.17Z"/>
    <path class="cls-1" d="M446.3,214.27c.79-2.35,1.25-4.88,2.44-7,2.72-4.84,5.89-9.42,8.69-14.22,.76-1.31,.86-3,.26-4.93-.88,1.82-1.59,3.76-2.7,5.44-1.14,1.73-2.65,3.22-4.53,5.43,.59-5.75,5.38-13.18,8.64-14.25,2.18,3.17,2.15,6.12,.15,9.61-3.86,6.76-7.2,13.81-10.75,20.75l-2.21-.83Z"/>
    <path class="cls-1" d="M4.46,476.55c2.59-2.93,4.07-4.62,5.98-6.78,.08,1.66,.15,2.97,.22,4.54,1.12-.44,2.15-.84,3.57-1.4,.15,1.44,.26,2.54,.39,3.78,2.46-.21,4.92-.41,7.38-.62-.21,.37-.42,.73-.63,1.1,3.02,2.52,6.04,5.04,9.06,7.55-.25,.43-.49,.87-.74,1.3-8.38-3.15-16.76-6.3-25.23-9.48Z"/>
    <path class="cls-1" d="M215.74,285.4c-.4-.17-1.1-.49-1.81-.8,.21-.29,.42-.57,.63-.86,.73,0,1.49-.12,2.2,.02,3.03,.62,3.81-.39,2.6-3.23-1.2-2.82-1.69-5.6,1.1-7.72,.53,.08,1.06,.16,1.59,.24-1.03,7.99-2.06,15.98-3.04,23.63-3.28,.58-5.95,1.05-8.63,1.52-.08-.29-.17-.58-.25-.86,1.91-.83,3.81-1.66,6.28-2.74-1.13-.73-1.36-1-1.55-.98-1.64,.2-3.28,.45-4.91,.69,.71-1.62,1.23-3.35,2.17-4.82,.88-1.39,2.2-2.51,3.64-4.09Z"/>
    <path class="cls-1" d="M352.75,320.11c-1.89,.61-3.56,1.14-5.58,1.78,.09-1.28,.16-2.38,.22-3.14-1.94,.78-3.97,1.59-5.99,2.44-.36,.15-.65,.48-.94,.76q-3.82,3.83-9.38,4.53c-.17-1.43-.34-2.86-.62-5.11,6.81,.66,11.19-3.48,15.22-8.44,1.37,1.45,2.36,2.5,3.58,3.8,.78-1.16,1.44-2.16,2.53-3.78,.38,2.83,.66,4.99,.95,7.15Z"/>
    <path class="cls-1" d="M247.36,147.2c2.72-2.17,5.45-4.35,8.17-6.52,0,0,0,0,0,0,0,1.14,0,2.28,0,2.59,2.12-.75,4.73-1.67,7.35-2.6,0,0,0,.01,0,.01-1.66,1.38-3.27,2.82-4.98,4.13-6.71,5.12-13.64,9.98-20.11,15.39-2.79,2.33-4.67,5.75-6.97,8.68-.52-.26-1.03-.52-1.55-.78,.78-1.66,1.15-3.75,2.4-4.9,5.18-4.73,10.64-9.14,15.91-13.78,.33-.29-.13-1.47-.22-2.23,0,0,0,0,0,0Z"/>
    <path class="cls-1" d="M61.46,208.22c-1.6-1.36-3.14-2.67-5.07-4.31-.38-8.38,6.02-16.26,16.13-18.47,1.38-.3,3.22,1.45,4.84,2.25-.18,.36-.37,.73-.55,1.09-.37,.03-.79,.18-1.12,.07-4.25-1.45-7.94-1.47-10.09,3.4-1.98,4.5-6.31,8.33-3.69,14.09,.28,.61-.4,1.64-.46,1.88Z"/>
    <path class="cls-1" d="M274.38,332.78c3.36-1.95,6.06-3.52,8.77-5.1,.18,.14,.37,.28,.55,.42-1.23,1.37-2.46,2.74-4.02,4.48,.96,.8,1.92,1.59,2.57,2.13,1.63-.87,3-2.21,3.96-1.95,.9,.24,1.34,2.16,2.03,3.31,.46,.77,1.01,2.14,1.51,2.13,6.2-.09,5.33,7.48,10.72,8.13-.38,.49-.76,.98-1.14,1.47-8.12-4.89-16.24-9.78-24.94-15.03Z"/>
    <path class="cls-1" d="M375.72,446.08c.56,3.71,1.11,7.42,1.59,10.64,2.03,3.47,3.97,6.8,5.91,10.12,.27-.1,.53-.2,.8-.3-.45-1.83-.9-3.67-1.35-5.5,5.4,3.71,5.95,6.96,2.7,9.04,.49,2.18,.98,4.36,1.47,6.53-4.88-4.08-3.76-12.44-11.36-14.63-.68-4.29-1.46-8.87-2.08-13.47-.1-.76,.52-1.62,.81-2.44,.5,0,1,.01,1.51,.02Z"/>
    <path class="cls-1" d="M46.21,240.58c-3.44-5.77-.34-11.1,1.81-16.46,2.22-5.55,4.53-11.06,6.78-16.55,3.75,1.25,4.4,2.77,2.18,4.47-4.99,3.82-5.47,9.56-6.83,14.87-1.15,4.48-1.73,9.11-2.56,13.68-.46,0-.92,0-1.39-.01Z"/>
    <path class="cls-1" d="M471.87,134.96c-1.89-3.13-3.29-6.49-6.61-8.72-1.76-1.18-2.64-3.66-3.94-5.54-2.32-3.35-4.43-6.93-9.05-7.6-.59-.09-1.07-.9-1.61-1.38,.7-.67,1.59-2.03,2.07-1.9,1.73,.47,4.34,1.08,4.78,2.3,1.18,3.28,3.77,1.77,4.9,2.94,1.88,2.96,3.41,6.23,5.73,8.8,2.98,3.29,4.12,6.86,3.71,11.12l.02-.03Z"/>
    <path class="cls-1" d="M265.24,242.97c-2.09,1.24-4.17,2.47-6.61,3.92,.48,.38,1.85,1.44,3.83,2.99-2.29,.95-4.46,1.86-7.7,3.2,2.27-6.85-1.13-9.75-6.4-12.1,1.69-.72,2.79-1.19,4.05-1.74-1.46-2.25-4.63-4.89,1.32-5.13,1.33-.06,2.61-1.59,4.76-1.72-.6,.93-1.38,1.79-1.78,2.8-.81,2.07-1.41,4.21-2.09,6.33,2.73,.72,5.21,3.54,8.32,.99,.4-.33,.81-.65,1.21-.98,.36,.48,.71,.96,1.07,1.45Z"/>
    <path class="cls-1" d="M325.99,90.42c-2.75,2.04-5.5,4.09-8.75,6.51,.98-4.85,4.06-6.51,7.75-7.88,2.55-.95,4.85-2.59,7.51-4.06-1.63,3.07-2.83,7.02-5.37,9.72-3.64,3.85-8.21,6.83-12.49,10.05-.54,.4-1.69,0-2.56-.04,.5-.67,.9-1.48,1.53-2,4.08-3.31,8.23-6.55,12.31-9.86,.45-.37,.61-1.09,.91-1.64-.28-.27-.55-.53-.83-.8Z"/>
    <path class="cls-1" d="M302.96,341.49c-1.7,2.75-3.23,2.21-4.9-.12-1.68-2.34-4.05-4.32-5.21-6.87-1.6-3.53-3.26-6.69-7-8.32-.2-.09-.23-1.3-.02-1.42,.63-.37,1.49-.73,2.16-.6,3.06,.58,7.73,6.5,7.82,9.61,4.56,.41,5.14,4.48,6.96,7.37l.19,.36Z"/>
    <path class="cls-1" d="M448.81,92.41c-.77-5.1-1.45-10.21-2.44-15.26-.11-.54-1.98-.86-3.08-1.05-2.57-.45-5.16-.75-7.74-1.11,0-.65,.01-1.29,.02-1.94,3,0,6.12-.49,8.95,.19,1.6,.39,2.86,2.62,4.05,4.19,.85,1.11,1.06,2.78,2.02,3.72,4.13,4.04,3.59,8.98-1.43,11.55-.11-.1-.23-.19-.34-.29Z"/>
    <path class="cls-1" d="M349.76,283.73c-5.19-3.61-3.67-8.36-4.34-12.36-.49-2.95-1.31-3.78-4.84-.92,2.66-6.63,4.8-11.97,6.95-17.32,.47,.16,.94,.31,1.42,.47-.58,1.88-1.03,3.8-1.75,5.62-2.59,6.56,.69,12.34,2.23,18.37,.44,1.73,.22,3.64,.33,6.13Z"/>
    <path class="cls-1" d="M302.77,341.14c.86-.45,1.78-1.38,2.56-1.27,3.09,.46,7.15,6.38,7.07,9.65-.02,.86,.67,1.75,1.05,2.62,.51,1.17,1.02,2.33,1.18,3.64-4.32-4.52-11.02-7.05-11.66-14.29,0,0-.19-.35-.19-.35Z"/>
    <path class="cls-1" d="M224.77,323.83c-1.39,.31-2.67,.6-4.44,1,.73-1.56,1.35-2.9,1.98-4.24-.36-.33-.72-.66-1.08-.99-1.39,1.56-2.77,3.12-4.52,5.09-.38-1.49-1.53-3.42-.98-4.39,1.46-2.61,3.2-5.73,5.67-6.94,3.54-1.74,5.62,1.45,4.38,6.21-.36,1.37-.65,2.75-1.01,4.27Z"/>
    <path class="cls-1" d="M294.24,409.74v-18.52c1.21,0,1.69-.04,1.7,0,1.02,5.3,2.36,10.58,2.8,15.94,.18,2.2-2.1,3.52-4.5,2.57Z"/>
    <path class="cls-1" d="M415.83,70c-2.87,.18-6.28,1.53-6.66-3.81,4.14,.04,7.95-.03,11.06,3.29,.75,.8,2.3,.86,3.92,.77,2.89,2.52-.32,4.51-1.93,5.14-4.28,1.67-4.61-2.71-6.4-5.39Z"/>
    <path class="cls-1" d="M249.76,173.16c2.17-2.87,3.96-5.69,6.23-8.07,1.17-1.22,3.17-1.64,5.39-2.71,.3,5.16,.55,9.57,.81,13.97-.35,.09-.7,.18-1.05,.28-.78-1.88-1.56-3.75-2.33-5.6-3.17,.75-6.22,1.46-9.05,2.13Z"/>
    <path class="cls-1" d="M527.43,183c.71,.51,1.43,1.03,1.84,1.32-2.11-5.22-4.31-10.62-6.5-16.03,.49-.24,.98-.47,1.47-.71,3.54,7.03,7.08,14.05,10.62,21.08,0,0-.25,.25-.25,.25-3.03-2.16-5.47-1.78-7.52,1.47-.28,.44-1.62,.22-2.06,.27,.86-2.83,1.57-5.16,2.28-7.49l.13-.16Z"/>
    <path class="cls-1" d="M18.55,505.16c.82-6.21-5.82-4.73-9.25-7.02,1.67-2.47,2.04-2.43,4.23-.73,1.2,.94,2.81,2.02,4.18,1.96,3.95-.17,7.86-.94,11.8-1.38,1.67-.19,3.37-.17,5.07,.51-5.36,2.23-10.71,4.46-16.02,6.67Z"/>
    <path class="cls-1" d="M46.34,294.91c.42-.64,.71-1.45,1.28-1.89,2.87-2.18,1.35-3.45-.81-4.78-1.13-.7-2.09-1.66-3.13-2.51,.52-.34,1.15-1.06,1.55-.96,1.58,.42,3.66,.68,4.51,1.79,1.43,1.88,1.88,4.47,3.12,6.53,.58,.97,1.96,1.61,3.11,2.04,.98,.37,2.16,.24,4.23,.41-1.77,2.05-2.85,3.31-4.09,4.74-2.95-2.43-3.58-8.91-9.77-5.39Z"/>
    <path class="cls-1" d="M436.67,285.07c-2.09-1.44-4.14-2.95-6.29-4.29-1.18-.73-2.96-1.97-3.75-1.57-1.6,.82-2.91,2.46-3.92,4.04-.6,.94-.39,2.39-.62,4.26-1.24-2.02-2.03-3.32-3.25-5.33,2.53-2.16,5.4-4.77,8.48-7.11,.47-.36,2.47,.24,2.75,.86,.95,2.09,4.96,1.92,3.91,5.35,1.67,.35,3.34,.7,6.54,1.38-1.52,.95-2.57,1.61-3.62,2.27,0,0-.23,.15-.23,.15Z"/>
    <path class="cls-1" d="M445.27,231.57c-6.87-.33-8.02-2.67-5.95-8.26,1.17-3.18-.03-7.16,2.8-10,.45-.45,.82-.97,2-1.41-2.94,6.77-2.17,13.26,1.15,19.68Z"/>
    <path class="cls-1" d="M258.68,154.63c-1.2,2.79-2.28,5.64-3.66,8.34-.65,1.27-1.81,2.35-2.95,3.25-.16,.13-2.16-1.22-2.14-1.85,.04-1.36,.81-2.7,1.36-4.02,.14-.33,.56-.54,1.18-1.09-1.33-.79-2.5-1.5-4.77-2.85,2.13-.1,3.26,.1,4.17-.25,1.38-.53,2.55-1.64,3.95-2.12,1.18-.41,2.55-.27,3.83-.37-.32,.32-.65,.65-.97,.97Z"/>
    <path class="cls-1" d="M472.01,238.78c0-2.87-.11-5.59,.05-8.28,.07-1.29,.57-2.58,1.08-3.79,.09-.21,1.69-.14,1.73,.03,.35,1.34,.66,2.73,.62,4.1-.02,.67-.82,1.31-1.5,2.3,3.58,2.29,7.53,4.4,6.16,9.63-4.03,1.08-2.84-8.62-8.15-3.99Z"/>
    <path class="cls-1" d="M439.49,121.56c1.09-2.97,2.08-5.69,3.09-8.45,1.7,1.32,2.67,2.08,4.21,3.28,.21,2.14,.88,5.2,.63,8.17-.1,1.16-2.25,2.14-3.46,3.21-.25-1.15-.78-2.34-.65-3.45,.12-1.09,.91-2.11,1.41-3.16-1.29,.1-2.58,.2-5.23,.4Z"/>
    <path class="cls-1" d="M335.21,274.09c0,4.82-.75,9.96,.24,14.74,.74,3.58-.76,5-2.74,7.17-2.54-12.2-1.47-20.07,2.49-21.91Z"/>
    <path class="cls-1" d="M392.87,494.86c-1.54-4.92-3.28-9.54-4.33-14.3-.5-2.27,.31-4.84,.52-7.27,.49,0,.99,.01,1.48,.02,.17,2.41-.07,4.95,.62,7.2,.87,2.86,2.18,5.71,3.9,8.15,2.42,3.43,2.39,4.24-2.19,6.2Z"/>
    <path class="cls-1" d="M421.46,272.33c-4.97-7.81-3.28-17.15,3.24-21.4-.57,1.57-.85,2.43-1.2,3.27-1.45,3.46-3.1,6.62-1.18,10.77,.89,1.91-.5,4.88-.86,7.37Z"/>
    <path class="cls-1" d="M496.87,206.81c-1.97-2.08-3.06-3.24-3.58-3.79,1.39-3.18,2.46-6.05,3.87-8.75,1.47-2.81,3.26-5.45,4.91-8.16,.38,.15,.75,.3,1.13,.45-2,6.41-4.01,12.82-6.33,20.26Z"/>
    <path class="cls-1" d="M421.86,85.12c1.3,2.76,2.73,5.47,3.85,8.3,1.03,2.59,1.94,5.28,2.49,8,.19,.95-.83,2.15-1.29,3.23-.61-.82-1.41-1.57-1.8-2.48-1.65-3.87-3.31-7.76-4.7-11.73-.52-1.48-.3-3.22-.42-4.84,.62-.16,1.24-.32,1.86-.48Z"/>
    <path class="cls-1" d="M357.61,343.55c-1.9,.36-3.24,.61-4.56,.86-4.69-10.87-4.72-12.01-.22-13.64,1.58,4.24,3.17,8.47,4.78,12.78Z"/>
    <path class="cls-1" d="M453.54,241.33c3.7-3.04,.66-5.23-.26-7.79-.91-2.54-1.26-5.28-2.04-8.75-.12,.12,.6-.64,1.93-2.05,.8,2.21,1.38,3.88,2.01,5.54,.99,2.63,2.14,5.2,2.96,7.88,.43,1.41,.89,3.29,.29,4.41-.54,1-2.5,1.24-3.83,1.81-.36-.35-.71-.69-1.07-1.04Z"/>
    <path class="cls-1" d="M209.62,258.3c0-3.04,.14-5.58-.05-8.1-.13-1.72-.8-3.39-1.07-5.11-.37-2.38-.58-4.78-.93-7.71,5.77,2.61,6.76,16.1,2.05,20.92Z"/>
    <path class="cls-1" d="M455.37,263.28c-1.53-6.5-2.92-12.39-4.47-18.99,5.98,3.54,8.45,13.96,4.47,18.99Z"/>
    <path class="cls-1" d="M154.04,528.43c-.05,1.02-.11,2.04-.1,1.84,2.82,2.34,5.01,4.15,7.2,5.96-.43,.48-.86,.97-1.29,1.45-.86-.96-1.72-1.91-2.18-2.42h-8.56c-.31,.22-1.59,1.15-2.86,2.08-.41-.43-.83-.85-1.24-1.28,2.61-2.82,5.22-5.63,7.82-8.45,.4,.27,.8,.55,1.2,.82Z"/>
    <path class="cls-1" d="M220.12,218.23c-1.34,8.11-2.68,16.21-4.19,25.34-2.04-5.33-4.11-9.52,.23-13.72,.77-.74,.53-2.54,.73-3.85,.41-2.69,.79-5.39,1.18-8.08,.68,.11,1.36,.21,2.04,.32Z"/>
    <path class="cls-1" d="M37.56,232.81c-.53,.12-1.1,.13-1.57,.36-3.43,1.72-4.76,.86-4.25-3.07,.24-1.83-.19-3.74-.35-6.14,.9,.04,2.09,.09,3.68,.16-.75,2.65-1.35,4.78-1.97,6.98,4.11,.02,5.83-1.94,5.38-5.43-.19-1.45,.27-2.97,.86-4.41,3.03,4.69,2.01,9.69-1.8,11.55h.02Z"/>
    <path class="cls-1" d="M328.44,440.02c.33,6.68-.83,13.57,3.48,19.76l-2.04,.63c-1.13-2.47-2.26-4.94-3.49-7.65-.45,.08-1.5,.28-3.28,.61,1.94-4.85,3.63-9.1,5.33-13.35Z"/>
    <path class="cls-1" d="M209.71,151.97c4.52-2.47,8.41-6.15,13.59-7.32,4.79-1.08,8.4-5.91,14.33-3.68-3.65,1.71-7.25,3.57-10.99,5.09-5.5,2.25-11.1,4.26-16.66,6.37-.09-.16-.18-.31-.28-.46Z"/>
    <path class="cls-1" d="M203,261.05c4.6,5.4,9.21,10.79,14.54,17.05-2.38,.62-4.19,1.59-4.73,1.12-1.08-.95-1.49-2.68-2.13-4.11-.32-.71-.36-1.58-.8-2.18-2.7-3.61-5.48-7.16-8.23-10.73,.45-.38,.9-.77,1.35-1.15Z"/>
    <path class="cls-1" d="M249.05,320.55c5.7,3.2,2.97,8.4,4.55,12.99-2.83-1.79-6.57-2.87-7.15-4.87-.65-2.22,1.58-5.28,2.61-8.12Z"/>
    <path class="cls-1" d="M257.53,310.66c2.24-1.64,4.49-3.29,7.61-5.57-2.14-.47-3.13-.69-4.29-.94,1.39-2.18,2.75-4.29,4.36-6.81,1.11,3.11-.84,6.84,3.63,7.49,.35,.05,.93,1.83,.63,2.37-.46,.83-2.16,1.97-2.38,1.8-3.54-2.85-4.48,.94-6.33,2.33-.49,.36-1.02,.66-1.53,.99-.57-.55-1.13-1.1-1.7-1.66Z"/>
    <path class="cls-1" d="M293.16,102.58c6.18-4.04,11.81-7.72,17.77-11.61-.75,5.88-10.44,12.24-17.77,11.61Z"/>
    <path class="cls-1" d="M37.55,232.82c2.36,.72,3.69,1.91,3.06,4.75-.71,3.2-.9,6.52-1.53,9.74-.12,.6-1.25,1-1.59,1.25-.49-3.18-1.24-6.12-1.28-9.07-.03-2.22,.87-4.46,1.35-6.69,0,0-.02,.01-.02,.01Z"/>
    <path class="cls-1" d="M323.87,488.52c-2.12-2.45-3.56-4.12-5.13-5.93,3.57-1.82,7.62-3.87,11.67-5.93-.15-.17-.31-.33-.46-.5h3.99c.16,.2,.32,.41,.47,.61-3.7,2.04-7.39,4.09-10.83,5.99,.69,.69,2.5,1.68,2.66,2.9,.13,.96-1.77,2.19-2.38,2.87Z"/>
    <path class="cls-1" d="M419.37,544.88c3.7-.55,7.4-1.07,11.1-1.65,2.58-.4,5.15-.86,7.91-1.33,.06,2.54-.76,4.74-4.33,4.54-4.76-.27-9.51-.67-14.27-1.02-.13-.19-.27-.37-.41-.54Z"/>
    <path class="cls-1" d="M471.85,134.99c.65-.07,1.55-.45,1.92-.16,2.45,1.92,4.78,3.98,7.33,6.14-3.57,4.15-7.12,1.48-10.87-.29,.55-1.91,1.09-3.82,1.64-5.72,0,0-.02,.03-.02,.03Z"/>
    <path class="cls-1" d="M258.68,154.63c.32-.32,.65-.65,.97-.97,6.1-1.07,8.74,2.96,10.56,7.6,.37,.95-1.25,2.69-1.96,4.06-.59-.07-1.18-.13-1.78-.2-.51-2.88-1.02-5.76-1.53-8.64l-.52,1.1c-1.92-.99-3.83-1.97-5.75-2.96Z"/>
    <path class="cls-1" d="M414.15,278.86c.89,4.7,1.79,9.4,2.9,15.27-1.75-1.38-3.58-2.15-4.32-3.51-2.08-3.86-2-7.88,0-11.71,.47-.01,.95-.03,1.42-.04Z"/>
    <path class="cls-1" d="M290.84,267.68c3.87-.05,7.89-3.72,11.97,.41,1.19,1.2,4.22,.59,6.7,.83-.23,.74-.41,1.33-.6,1.91-3.09-1.21-6.26,2.4-9.7-.72-1.93-1.76-5.53-1.68-8.38-2.43Z"/>
    <path class="cls-1" d="M287.95,394.02v7.82c-2.58-3.47-8.26-4.95-6.31-11.39,1.96,1.11,3.81,2.15,6.31,3.57Z"/>
    <path class="cls-1" d="M327.2,395.74c.86-3.44,1.58-6.93,2.68-10.29,.32-.99,1.74-1.62,2.66-2.41-.14,1.08-.14,2.21-.46,3.24-1.08,3.42-1.24,6.47,3.1,8.14-.12,.38-.23,.77-.35,1.15-2.44,.18-4.88,.36-7.32,.54-.09-.13-.19-.25-.3-.37Z"/>
    <path class="cls-1" d="M383.67,440.93c-1.94,.12-3.81,.24-6.73,.43,.85-2.87,1.7-5.72,2.63-8.85,5.14,2.96,5.66,4.37,4.11,8.42Z"/>
    <path class="cls-1" d="M408.47,61.2c1.56-7.76,11.43-4.23,13.36-10.58,1.56,.65,2.69,1.12,4.88,2.03-6.34,2.97-12.02,5.64-18.24,8.55Z"/>
    <path class="cls-1" d="M84.98,178c-6.54,1.6-9.77-4.34-14.88-5.85l-.11-1.26c2.34-.74,4.69-1.49,7.76-2.46-3.02,7.91,4.87,6.26,7.23,9.57Z"/>
    <path class="cls-1" d="M301.73,261.86c-4.47,.39-8.56,.75-13.94,1.22,2.74-1.71,4.62-2.89,6.72-4.2-.17-.41-.78-1.34-.89-2.32-.05-.45,.82-1.41,1.34-1.45,1.75-.15,6.67,5.53,6.77,6.75Z"/>
    <path class="cls-1" d="M150.1,184.15c-3.77,10.51-11.49,15.14-18.62,9.78,10.12,2.72,12.8-5.76,18.62-9.78Z"/>
    <path class="cls-1" d="M281.72,247.44c-3.55,4.44-6.68,3.71-8.95,1.33-2.55-2.67-1.49-5.9,.84-9.09,.5,4.6,1.61,8.53,8.11,7.76Z"/>
    <path class="cls-1" d="M350.51,156.59c-.78-1.4-2.53-3.64-2.16-4.07,1.46-1.71,3.53-2.93,5.53-4.08,.17-.1,2.25,2.05,2.04,2.52-.95,2.09-2.41,3.94-3.69,5.88-.57-.08-1.15-.17-1.72-.25Z"/>
    <path class="cls-1" d="M58.23,185.19c.46,4.74-1.96,9.29-6.16,10.51,.72-1.47,1.31-2.38,1.61-3.38,.34-1.13,.42-2.33,.61-3.5-1.04,.34-2.09,.65-3.11,1.05-.46,.18-.86,.53-2.11,1.34,1.4-3.38,.84-7.46,5.95-4.96,.71,.35,2.09-.66,3.21-1.06Z"/>
    <path class="cls-1" d="M392.84,251.51c-.35-.08,.24,.06,.83,.2,0,.31,.02,.62,.02,.93-3.1,.18-6.21,.36-9.69,.57,3.59-3.44,6.69-6.41,9.79-9.38,.4,.24,.79,.48,1.19,.72-.68,2.22-1.36,4.43-2.14,6.97Z"/>
    <path class="cls-1" d="M147.24,521.66c1.07,.8,2.14,1.6,3.75,2.81-5.64,1.56-11.16,3.25-13.72,9.9-.86-3.21,1.92-9,3.88-10,1.9-.96,3.73-2.05,5.6-3.08,.16,.13,.33,.26,.5,.38Z"/>
    <path class="cls-1" d="M441.74,294.03c.33,5.09,.65,10.18,.98,15.28l-2.1,.27c-.35-2.44-.71-4.89-1.06-7.33-.25-1.69-.67-3.37-.68-5.06,0-1.15,.56-2.31,.87-3.47,.67,.1,1.33,.2,1.99,.31Z"/>
    <path class="cls-1" d="M433.33,307.77c.86,2.86,1.72,5.72,2.57,8.58h.64v-5.49c3.9,2.83,3.61,5.42-1.65,9.3-1.45-4.01-2.78-7.71-4.11-11.4,.85-.33,1.7-.65,2.55-.98Z"/>
    <path class="cls-1" d="M132.4,544.41c3.49-1.78,6.33-3.24,9.77-4.99,.28,1.06,1.4,3.87,1.03,4.08-2.6,1.48-5.46,2.62-8.36,3.4-.58,.16-1.7-1.69-2.44-2.49Z"/>
    <path class="cls-1" d="M71.51,362.75c-.58,5.14,3.97,10.37-2.13,14.89-.54-4.02,3.3-7.99-.89-11.99-.8,1.53-1.42,2.74-2.04,3.92-2.07-3.63-.96-5.33,5.05-6.82Z"/>
    <path class="cls-1" d="M307.17,328.17c-.72-.09-1.44-.17-1.88-.23-.22,1.88-.44,3.73-.81,6.88-2.52-2.77-4.22-4.44-5.65-6.31-.57-.74-.55-1.93-.8-2.91,.79,.51,1.61,.99,2.37,1.56,.29,.22,.43,.66,1.04,1.67,.6-2,.96-3.19,1.48-4.92,1.59,1.15,3.1,2.24,4.62,3.34-.12,.31-.24,.62-.36,.94Z"/>
    <path class="cls-1" d="M387.83,264.46c2.8,.07,4.67,6.11,8.58,1.49-.57,.89-1.14,1.78-1.39,2.18,.75,.67,1.42,1.27,2.1,1.88-.93,.76-2.04,2.28-2.76,2.11-1.58-.36-2.97-1.56-4.41-2.46-1.21-.76-2.38-1.58-3.56-2.37,.48-.94,.96-1.88,1.44-2.83Z"/>
    <path class="cls-1" d="M453.96,102.93c-3.7-.64-5.91-.37-4.75,3.96,.12,.43-.62,1.55-.76,1.51-.82-.21-1.88-.45-2.28-1.06-.64-.98-1.42-2.49-1.08-3.36,.6-1.56,1.77-3.13,3.11-4.13,3.76-2.81,3.41,2.45,5.76,3.08Z"/>
    <path class="cls-1" d="M239.81,236.24c4.15,3.65,6.53,10.14,4.54,12.45-1.03,1.19-3.22,1.39-5.31,1.54,6.34-4.31,.95-8.97,.77-13.98Z"/>
    <path class="cls-1" d="M206.17,224c-.43,5.31-4.89,5.26-7.42,7.25-.09,.07-1.87-1.28-1.95-2.07-.16-1.48,.12-3.11,.67-4.5,.26-.67,1.55-.94,2.72-1.59,.36,1.43,.69,2.76,1.08,4.33,1.51-1.06,2.9-2.03,4.9-3.42Z"/>
    <path class="cls-1" d="M24.33,399.77v-8.96c2.15,2.35,3.56,3.9,4.98,5.45-.27,.33-.54,.65-.8,.98,.98-.17,1.97-.34,3.47-.6-1.67,2.55-3.04,4.65-4.37,6.68-1.14-1.2-2.03-2.14-2.92-3.08-.11-.16-.23-.32-.35-.48Z"/>
    <path class="cls-1" d="M51.16,200.08c-2.38-.82-4.88-1.41-7.09-2.56-.87-.45-1.58-2.16-1.48-3.22,.08-.84,1.4-2.01,2.34-2.18,.7-.13,1.78,.96,2.47,1.71,1.58,1.72,3.03,3.56,4.54,5.35-.26,.3-.51,.6-.77,.91Z"/>
    <path class="cls-1" d="M284.26,98.16c6.36-3.74,12.73-7.48,19.09-11.22,.34,.58,.69,1.17,1.03,1.75-6.41,3.64-12.82,7.27-19.23,10.91-.3-.48-.59-.96-.89-1.44Z"/>
    <path class="cls-1" d="M417.14,294.29c3.12,3.63-2.06,9.03,4.66,10.73-1.31,1.41-2.26,2.43-3.88,4.19-.58-2.5-.92-4-1.22-5.31-1.1-.61-3.08-1.53-3.01-1.72,.9-2.5,2.09-4.9,3.46-7.9Z"/>
    <path class="cls-1" d="M60.01,358.24c-1.41,6.92-2.87,14.1-4.32,21.27-3.23-4.26,.55-19.76,4.32-21.27Z"/>
    <path class="cls-1" d="M81.8,418.24c-.4,6.09-.75,11.39-1.1,16.69-.47-.04-.95-.08-1.42-.12,.51-5.34-4.16-11.23,2.52-16.57Z"/>
    <path class="cls-1" d="M39.81,250.07c1.27,3.64,2.55,7.28,4.05,11.56-2.87-1.17-5.28-2.15-7.68-3.13-.14,.32-.29,.64-.43,.97-.43-1.36-.85-2.72-1.37-4.37,6.36,2.92,4.15-2.37,4.26-5.48,.39,.15,.78,.3,1.17,.44Z"/>
    <path class="cls-1" d="M211.33,175.73c-5.64,6.69-10.43,12.38-15.23,18.07-.45-.39-.9-.77-1.35-1.16,5.94-4.69,7.26-13.43,16.57-16.91Z"/>
    <path class="cls-1" d="M63.9,259.21c1.49-.3,2.57-.53,3.66-.75-.31-.24-.62-.48-.92-.72,1.52-3.2,3.04-6.41,4.58-9.65,2.39,1.4,1.97,4.79-1.6,10.43-1.29,2.04-3.2,2.7-5.71,.69Z"/>
    <path class="cls-1" d="M271,294.21c7.69,9.16,7.89,11.08,1.86,13.21,1.58-3.59,1.76-6.57-2.56-8.01-.24-.08,.34-2.62,.7-5.2Z"/>
    <path class="cls-1" d="M307.26,83.88c4.5-3.25,7.27-7.34,12.73-7.23-1.06,4.03-6.91,7.55-12.73,7.23Z"/>
    <path class="cls-1" d="M354.33,135.67c1.88,.57,3.54,1.08,5.06,1.54-.77,3.65-1.44,6.8-2.11,9.95-.68-.06-1.36-.13-2.05-.19-.29-3.55-.57-7.11-.91-11.3Z"/>
    <path class="cls-1" d="M283.75,245.96c.04-1.66-.42-2.01-5.26-3.98,3-4.24,3.88-4.24,11.56,1.53-1.68,1.51-3.1,2.78-4.52,4.06-.6-.54-1.19-1.07-1.79-1.61Z"/>
    <path class="cls-1" d="M229.25,249.56c.37,1.08,.73,2.16,1.1,3.23,.44,.33,.88,.66,1.33,.99,1.18-1.73,2.35-3.46,3.53-5.19,.25,.12,.51,.25,.76,.37-1.18,2.6-2.35,5.21-3.88,8.6-1.92-1.64-3.96-3.05-5.46-4.89-.37-.46,.96-2.31,1.52-3.52,.37,.13,.74,.27,1.12,.4Z"/>
    <path class="cls-1" d="M445.22,324.06c-1.28-2.7-2.77-5.34-3.71-8.15-.28-.84,.96-2.19,1.51-3.3,.87,.77,2.27,1.41,2.5,2.33,.69,2.84,.92,5.78,1.33,8.69l-1.63,.43Z"/>
    <path class="cls-1" d="M409.59,302.41c-.45-3.39-7.08-.22-5.32-5.48,.42-1.27,3-1.83,4.59-2.71l2.5,7.39c-.59,.27-1.18,.53-1.77,.8Z"/>
    <path class="cls-1" d="M193.79,242.06c1.15-2.24,2.32-4.55,3.5-6.86,.49,.22,.98,.44,1.46,.66-1.24,3.08-2.18,6.35-3.89,9.15-.51,.84-3.15,.46-4.8,.43-.18,0-.59-1.96-.48-2.01,1.31-.56,2.7-.91,4.2-1.36Z"/>
    <path class="cls-1" d="M280.69,307.45c1.62,2.64,3.5,5.16,4.65,7.99,.27,.67-1.9,2.34-2.95,3.55-.32-1.22-.67-2.43-.95-3.66-.56-2.37-1.08-4.75-1.61-7.13l.86-.74Z"/>
    <path class="cls-1" d="M340.46,147.52c-1.43-.82-3.23-1.45-1.48-4.91,1.11-2.2,.21-5.41,.21-7.96,1.18,1.45,3.1,3.66,4.77,6.04,.22,.31-.83,1.48-1.24,2.28-.72,1.4-1.39,2.81-2.25,4.56Z"/>
    <path class="cls-1" d="M447.22,139.83c6.08-3.57,8.9,.49,13.03,1.94-1.19,1.28-1.88,2.03-2.16,2.33-3.66-1.44-6.78-2.66-10.87-4.27Z"/>
    <path class="cls-1" d="M357.58,125.67c-3.82-2.26-5.3-.12-5.82,3.82-.5-.34-1.01-.68-1.51-1.02,.31-2.38,.62-4.77,.93-7.1,2.1,0,3.69,0,5.28,0,1.05,0,2.1,.04,3.15,.07-.46,.74-.98,1.45-1.37,2.22-.27,.54-.39,1.16-.66,2.01Z"/>
    <path class="cls-1" d="M294.42,239.72c1.39-3.35,2-8.33,7.61-5.28,.79,.43,2.22-.3,3.74-.57-2.26,3.5-4.22,6.75-8.69,2.78-1,1.15-1.83,2.1-2.66,3.06Z"/>
    <path class="cls-1" d="M468.06,146.35c3.45-.01,6.72-.31,7.18,3.77,.09,.77-1.76,2.6-2.3,2.45-2.85-.8-4.96-2.53-4.88-6.22Z"/>
    <path class="cls-1" d="M57.47,348.02c.66-1.05,1.33-2.11,2.34-3.71,2.2,5.08,4.15,1.38,6.44,.11,.3,3.45-6.07,5.96-1.24,10.01-1.14-.6-2.57-.96-3.35-1.87-1.17-1.39-1.88-3.16-2.79-4.77-.46,.08-.93,.16-1.39,.23Z"/>
    <path class="cls-1" d="M53.68,283.26c1.22,.81,2.37,1.76,3.68,2.38,1.35,.64,2.86,.95,4.78,1.56-.18-.41,.07-.11,0,.05-1.39,3-2.54,3.2-5.34,1.08-1.44-1.1-2.95-2.11-4.42-3.16,.43-.64,.86-1.27,1.29-1.91Z"/>
    <path class="cls-1" d="M256.22,325.97c2.21,1.67,3.69,3.59,5.49,3.96,2.83,.58,4.41,1.37,4.04,5.25-3.48-3.06-9.73-1.42-9.53-9.21Z"/>
    <path class="cls-1" d="M28.81,194.5c.56-1.64,.88-3.47,1.24-3.48,3.82-.08,7.76-3.13,11.99,.49-4.35,.98-8.25,1.86-13.24,2.99Z"/>
    <path class="cls-1" d="M401.19,383.8c-.81,1.13-1.41,1.96-2.6,3.6-.53-2.99-.8-4.5-1.19-6.69,2.98-.42,5.91-.83,8.84-1.24,.2,.48,.41,.95,.61,1.43-2.04,1.05-4.08,2.09-5.66,2.9Z"/>
    <path class="cls-1" d="M527.29,183.16c-3.98-.76-7.96-1.49-11.92-2.32-.53-.11-.95-.78-1.43-1.19,.51-.5,1.11-1.48,1.51-1.41,3.21,.62,7.82-3.16,9.41,2.94,.2,.77,1.67,1.22,2.56,1.82,0,0-.13,.16-.13,.16Z"/>
    <path class="cls-1" d="M402.27,55.41c5.74-3.15,11.47-6.3,17.21-9.44l.69,1.12c-5.54,3.39-11.09,6.77-16.63,10.16-.42-.61-.85-1.22-1.27-1.83Z"/>
    <path class="cls-1" d="M258.52,346.78c1.14,1.78,2.28,3.56,3.55,5.55-1.3,1.46-2.66,2.98-4.01,4.5-.41-.07-.82-.14-1.23-.21,.17-3.23,.34-6.46,.51-9.7,.39-.05,.79-.1,1.18-.14Z"/>
    <path class="cls-1" d="M281.43,133.67v4.36c-4,1-7.91,1.98-11.83,2.97-.13-.26-.26-.52-.38-.77,4.05-2.17,8.1-4.35,12.21-6.55Z"/>
    <path class="cls-1" d="M59.05,257.66c-1.54,.2-2.96,.39-3.5,.46-.5-2.42-.47-4.66-1.42-6.35-1.64-2.9-.39-3.77,1.83-4.46,1.04,3.48,2,6.72,3.08,10.35Z"/>
    <path class="cls-1" d="M467.8,212.14c-1.17,3.76-2.35,7.52-3.52,11.27q-2.33-4.6,1.92-11.62l1.6,.35Z"/>
    <path class="cls-1" d="M265.03,287.62c.08-1.67,.15-3.17,.24-5.05,1.89,.5,3.22,.85,3.91,1.03,1.09-1.87,1.98-3.4,3.45-5.94,1.12,5.02-1.48,7.89-7.6,9.95Z"/>
    <path class="cls-1" d="M272.41,229.52c.57-.65,1.31-1.5,2.05-2.35,.39,.15,.79,.31,1.18,.46-.55,1.72-1.1,3.44-1.65,5.16-.52,.22-1.05,.44-1.57,.66-1.29-1.82-2.7-3.58-3.74-5.54-.17-.31,1.37-1.52,2.12-2.32,.53,1.28,1.05,2.56,1.61,3.92Z"/>
    <path class="cls-1" d="M116.93,249.35c2,4.23,4.01,8.46,6.01,12.7-.65,.3-1.29,.6-1.94,.9-1.94-4.26-3.89-8.51-5.83-12.77,.58-.28,1.17-.55,1.75-.83Z"/>
    <path class="cls-1" d="M319.05,109.65c2.89-4.17,5.77-8.33,8.66-12.5,.62,.43,1.23,.86,1.85,1.29-2.99,4.09-5.99,8.18-8.98,12.27l-1.52-1.07Z"/>
    <path class="cls-1" d="M243.97,225.44c5.83-1.83,1.71-6.64,3.28-10.87,2.39,3.48,3.46,6.55,2.13,9.64-.58,1.35-3.03,1.89-4.64,2.8l-.77-1.57Z"/>
    <path class="cls-1" d="M42.37,500.98c1.11-.5,2.34-.83,3.31-1.54,.88-.64,1.47-1.68,2.29-2.67,.29,.26,.79,.54,1.03,.96,.94,1.65,1.81,3.34,2.7,5.02-1.57-.29-3.12-.7-4.7-.82-1.4-.11-2.83,.1-4.25,.17-.12-.37-.25-.74-.37-1.12Z"/>
    <path class="cls-1" d="M56.48,279.46c-2.15-1.97-4.36-3.88-6.39-5.97-.47-.49-.29-1.62-.4-2.45,.85-.1,2.21-.59,2.48-.25,1.96,2.55,3.69,5.27,5.5,7.94-.4,.24-.79,.49-1.19,.73Z"/>
    <path class="cls-1" d="M38.77,181.62c-2.32,2.26-4.63,4.52-6.95,6.79-.71-5.45,1.57-7.67,6.95-6.79Z"/>
    <path class="cls-1" d="M229.41,305.79c1.37,2.72,2.84,5.4,3.96,8.23,.15,.37-1.52,1.46-2.08,1.98-1.44-3.45-2.66-6.38-3.88-9.31,.67-.3,1.33-.6,2-.89Z"/>
    <path class="cls-1" d="M379.77,405.04c3.04-1.87,6.08-3.74,9.12-5.61,.32,.49,.63,.98,.95,1.48-3.09,1.83-4.09,6.74-9.04,5.84-.35-.57-.69-1.13-1.04-1.7Z"/>
    <path class="cls-1" d="M331.19,422.82c-.64-3.27-1.34-6.53-1.84-9.81-.06-.37,1.36-1.43,1.59-1.29,.83,.47,2.02,1.32,2.03,2.03,0,3-.37,5.99-.61,8.99-.39,.03-.78,.06-1.17,.09Z"/>
    <path class="cls-1" d="M200.16,178.7c3.05-6.08,7.16-9.69,13.67-10.48-4.34,3.33-8.69,6.66-13.67,10.48Z"/>
    <path class="cls-1" d="M290.85,216.94c-.29,2.38,.12,4.83-.91,6.09-1.25,1.53-3.72,2.05-5.67,3.01-.18-.68-.73-1.72-.47-2,2.17-2.36,4.5-4.57,7.05-7.11Z"/>
    <path class="cls-1" d="M255.12,262.21c-2.12-3.02-.94-5.44,.87-7.66,.18-.22,1.98,.28,2.24,.82,1.47,3.13,.45,5.4-3.11,6.84Z"/>
    <path class="cls-1" d="M271.21,254.68c-1.57,2.34-2.44,5.03-3.75,5.26-2.2,.4-4.68-.77-6.68-2.06,3.04-.93,6.08-1.87,10.43-3.2Z"/>
    <path class="cls-1" d="M238.38,268.76c-.3-1.33-.56-2.46-1.01-4.46,2.72,.67,4.82,1.18,7.48,1.84,.51-1.09,1.23-2.67,1.96-4.24,.32,.08,.65,.16,.97,.24-.5,1.73-.59,3.75-1.6,5.1-1.23,1.66-3.19,2.57-4.81-.05-.04-.06-1.63,.85-3,1.56Z"/>
    <path class="cls-1" d="M205.35,154.77c-4.5,1.79-9,3.58-13.5,5.37,1.47-3.68,5.92-5.43,13.5-5.37Z"/>
    <path class="cls-1" d="M208.7,314.62c2.26-.27,4.07-.49,6.32-.75,.25-.83,.64-2.15,1.23-4.1,1.9,3.06,2.34,5.38-.81,6.77-2.37,1.05-5.08,1.84-6.74-1.92Z"/>
    <path class="cls-1" d="M418.37,244.12v10.08c-.32,.08-.63,.17-.95,.25-.41-1.38-.68-2.82-1.29-4.11-.54-1.12-1.48-2.05-2.22-3.08-.41-.57-.78-1.16-1.17-1.74,.63-.31,1.22-.76,1.89-.89,1.34-.27,2.71-.37,3.74-.51Z"/>
    <path class="cls-1" d="M96.67,235.55c-.72,2.37-1.13,4.91-2.29,7.04-.5,.91-2.53,.99-3.87,1.45-.33-1.03-.66-2.06-.99-3.1,1.28-.31,2.55-.62,4.18-1.01,.45-1.24,1.12-3.1,1.79-4.96,.4,.19,.8,.38,1.19,.57Z"/>
    <path class="cls-1" d="M80.81,295.6c-5.24-3.61-5.87-5.07-3.19-9.27,1.63,3.15,3.06,5.89,4.48,8.64-.43,.21-.86,.42-1.29,.64Z"/>
    <path class="cls-1" d="M269.16,320.21c1.3,3.6,2.47,6.84,3.94,10.93-2.91-1.62-5.03-2.8-6.72-3.74,.94-2.44,1.78-4.61,2.78-7.18Z"/>
    <path class="cls-1" d="M282.78,412.08l.47-7.3c1.04,.21,2.99,.47,2.99,.61-.13,2.35-.52,4.68-.85,7.02-.87-.11-1.74-.22-2.6-.34Z"/>
    <path class="cls-1" d="M298.84,250.91c3.69-.38,6.73,2.88,5.88,5.9-.15,.53-.81,1.15-1.33,1.27-.5,.11-1.45-.23-1.65-.65-1.05-2.09-1.91-4.26-2.89-6.52Z"/>
    <path class="cls-1" d="M312.67,118.43c.49-2.16-3.91-4.46,.43-6.41,.95-.43,2.41,.27,3.63,.44-.96,2.12-1.92,4.25-2.88,6.37-.4-.14-.79-.27-1.19-.41Z"/>
    <path class="cls-1" d="M257.75,275.78c-1.26,.84-2.53,1.67-3.79,2.51l.74,1.19c1.21-.31,2.42-.63,3.63-.94,.17,.36,.34,.73,.52,1.09-2.08,1.02-4.16,2.04-7.37,3.62,.44-2.74,.2-4.97,1.18-6.24,.94-1.21,3.16-1.43,4.82-2.09,.1,.29,.19,.58,.29,.86Z"/>
    <path class="cls-1" d="M394.7,87.32c-3.32,3.07-6.63,6.13-9.95,9.2-.4-.41-.8-.81-1.2-1.22,3.2-3.2,6.4-6.4,9.6-9.6,.52,.54,1.03,1.08,1.55,1.62Z"/>
    <path class="cls-1" d="M313.03,279.72c3.96-8.8,6.06-10.53,10.56-9.99-3.53,3.33-7.05,6.66-10.56,9.99Z"/>
    <path class="cls-1" d="M324.72,197.12c.88-4.13,1.69-7.9,2.6-12.18,2.65,5.44,1.3,11.32-2.6,12.18Z"/>
    <path class="cls-1" d="M461.96,148.12c5.9,2.93,6.4,5.08,3.19,11.93-.13-4.2,.81-8.68-3.19-11.93Z"/>
    <path class="cls-1" d="M352.18,353.28c.92,.57,1.91,1.06,2.74,1.73,3.05,2.47,2.75,4.28-1.59,6.45-.58-2.7-1.13-5.23-1.68-7.77,.17-.14,.35-.28,.53-.41Z"/>
    <path class="cls-1" d="M370.78,292.24c1.33,1,2.63,1.87,3.79,2.9,.95,.84,1.72,1.88,2.99,3.3-4.15-.8-7.03-1.35-9.8-1.88,1.18-1.69,2.26-3.23,3.02-4.32Z"/>
    <path class="cls-1" d="M42.86,221.47c-.16-2.35-.31-4.71-.47-7.06,.82-.02,2.14-.38,2.39-.01,1.61,2.33,2.06,4.77-.04,7.01-.63,.02-1.26,.04-1.88,.07Z"/>
    <path class="cls-1" d="M386.35,286.89c-.65-1.11-1.29-2.21-2.14-3.65,1.79-1.31,3.56-2.6,5.45-3.98,1.37,4.17,1.11,4.73-3.31,7.63Z"/>
    <path class="cls-1" d="M403.25,31.69c1.39,.23,2.95,.16,4.07,.83,.49,.3,.55,2.51,0,3.14-1.37,1.57-3.21,2.73-5.18,3.62,.16-2.62,5.11-3.71,1.11-7.59Z"/>
    <path class="cls-1" d="M272.46,291.94c-2.35,1.49-4.55,2.89-6.84,4.35-.88-1.73-1.85-2.76-1.7-3.59,.15-.8,1.45-1.96,2.25-1.97,1.74-.01,3.48,.62,6.3,1.21Z"/>
    <path class="cls-1" d="M304.36,158.17c-.26-3.69-.91-7.46,1.93-10.5,.43,.08,.86,.16,1.3,.24-.58,3.51-1.15,7.02-1.73,10.52-.5-.09-1-.17-1.49-.26Z"/>
    <path class="cls-1" d="M394.6,485.67c.19-3.69,.34-6.69,.48-9.64,5.21,3.94,5.26,5.26-.48,9.64Z"/>
    <path class="cls-1" d="M32.64,510.04c-2.25,.29-4.49,.66-6.75,.84-1.65,.13-3.33,.03-4.99,.03-.03-.49-.07-.98-.1-1.47,3.67-.92,7.34-1.84,11.34-2.84,.13,.86,.33,2.14,.52,3.43,0,0-.02,.02-.02,.02Z"/>
    <path class="cls-1" d="M398.22,496.5c1.79,.6,3.58,1.19,5.98,1.99-3.91,1.4-7.11,2.55-10.3,3.7-.18-.31-.35-.61-.53-.92,1.91-1.34,3.83-2.67,5.74-4.01-.3-.25-.6-.5-.89-.76Z"/>
    <path class="cls-1" d="M45.54,183.75c.13-1.57-.31-3.64,.52-4.59,1.01-1.16,3.17-1.99,4.7-1.81,1.32,.15,2.46,1.91,3.74,3-2.7,2.45-8.9-6.83-7.32,3.97-.55-.19-1.09-.38-1.64-.57Z"/>
    <path class="cls-1" d="M290.78,284.12c-3.75-.54-7.49-1.07-11.24-1.61,.1-.59,.2-1.18,.3-1.77,4.28-2.29,7.19,2.94,11.23,1.94-.1,.48-.19,.96-.29,1.44Z"/>
    <path class="cls-1" d="M432.69,102.34l8.2,1.95c-.01,.54-.02,1.07-.04,1.61-1.82,.48-3.64,.96-5.62,1.47-.87-1.69-1.73-3.35-2.58-5.01l.03-.02Z"/>
    <path class="cls-1" d="M388.78,104.84c-2.44,2.54-4.89,5.07-7.33,7.61-.38-.32-.76-.65-1.15-.97-.95-.67-1.89-1.34-2.82-1.99,3.36-1.92,6.73-3.83,10.09-5.75,.41,.37,.81,.74,1.22,1.11Z"/>
    <path class="cls-1" d="M543.4,177.86c-2.59-2.74-4.27-4.53-6.82-7.23h7.19c-.09,1.87-.19,3.86-.36,7.23Z"/>
    <path class="cls-1" d="M37.39,376.42c-.35,8.03-1.01,8.76-5.64,7.86,1.9-2.65,3.77-5.26,5.64-7.86Z"/>
    <path class="cls-1" d="M329.82,315.96c-2.85,1.44-5.7,2.88-8.56,4.33-.14-.22-.29-.44-.43-.66,3.67-3.21,7.34-6.41,10.83-9.46-.6,1.87-1.23,3.85-1.86,5.82,0,0,.02-.03,.02-.03Z"/>
    <path class="cls-1" d="M76.38,418.28c-.96,3.15-1.64,5.41-2.38,7.83-4.95-3.35-4.8-3.93,2.38-7.83Z"/>
    <path class="cls-1" d="M286.6,278.49c-.59-6.21-.54-6.26,6.28-7.39,.53,2.24,.6,3.45-2.57,3.14-.96-.1-2.19,2.43-3.71,4.26Z"/>
    <path class="cls-1" d="M393.42,241.1c.94-2.22,1.7-3.99,2.72-6.4,.77,1.36,1.93,2.74,2.28,4.3,.19,.85-.89,2.81-1.54,2.88-1.39,.15-2.87-.62-3.46-.78Z"/>
    <path class="cls-1" d="M437.99,300.92c-1.29,6.03-5.86,5.47-9.46,6.48-.23-.38-.46-.76-.69-1.14,3.11-1.64,6.23-3.27,10.16-5.34Z"/>
    <path class="cls-1" d="M78.49,390.28c-.84-1.13-1.21-1.62-1.55-2.07-1.44,1.72-2.81,3.39-4.23,5.01-.21,.24-.71,.23-1.91-.3,1.82-2.36,3.57-4.78,5.54-7,.28-.32,2.29,.15,2.41,.57,.28,.97-.09,2.14-.26,3.81Z"/>
    <path class="cls-1" d="M367.37,142.16c-3.03,3.61-5.5,6.57-7.94,9.47-2.2-4.4,2.25-7.24,7.94-9.47Z"/>
    <path class="cls-1" d="M324.02,382.02c-1.26,.1-2.23,.18-3.2,.26-.1-.31-.2-.62-.3-.93,1.85-.76,3.67-1.6,5.58-2.15,.15-.04,1.39,2.04,1.23,2.98-.28,1.59-1.28,3.06-1.98,4.58-.68-.59-1.36-1.19-2.04-1.78,.22-.93,.45-1.86,.71-2.96Z"/>
    <path class="cls-1" d="M349.31,135.86c-.77,.66-1.55,1.33-2.58,2.21,.93-7.11,3.91-9.04,8.44-6.37-1.49,.96-3.13,2.02-4.77,3.08-.36,.36-.72,.72-1.08,1.08Z"/>
    <path class="cls-1" d="M530.16,176.29c-1.31-2.53-2.76-5.01-3.84-7.64-.23-.57,.83-1.67,1.3-2.53,.8,.57,2.16,1.03,2.29,1.72,.48,2.61,.55,5.28,.78,7.93-.18,.17-.35,.35-.53,.52Z"/>
    <path class="cls-1" d="M323.75,158.33c1.02-3.38,1.8-5.97,2.63-8.72,3.59,2.75,2.78,6.21-2.63,8.72Z"/>
    <path class="cls-1" d="M83.71,441.18c1.51,1.91,2.71,2.8,2.98,3.92,.39,1.62,.1,3.41,.1,5.19-3.31,.25-3.42,.02-3.07-9.11Z"/>
    <path class="cls-1" d="M244.64,272.01c1.39,2.33,2.78,4.66,4.22,7.06-4.47-.07-5.29-1-5.55-6.14l1.33-.92Z"/>
    <path class="cls-1" d="M325.92,361.07c1.75,1.04,3.6,1.94,5.2,3.18,.65,.51,.74,1.75,1.08,2.65-1.06,.02-2.6,.5-3.1-.02-1.53-1.59-2.66-3.57-3.94-5.4,.26-.14,.51-.28,.77-.42Z"/>
    <path class="cls-1" d="M395.12,291.24c-1.1,2.04-1.76,3.27-2.41,4.46-2.03-1.64-3.82-3.09-5.39-4.36,1.32-1.57,2.53-3.02,3.96-4.72-.08,1.7-.15,3.25-.24,5.14,1.09-.14,2.04-.26,4.07-.52Z"/>
    <path class="cls-1" d="M205.59,279.13c-2.2-4.64-4.39-9.28-6.59-13.91,.41-.18,.82-.35,1.23-.53,2.34,4.58,4.68,9.16,7.01,13.73-.55,.24-1.11,.47-1.66,.71Z"/>
    <path class="cls-1" d="M61.8,317.93c3.75-2.24,6.76-4.05,9.64-5.77,1.1,3.4-2.18,6.03-9.64,5.77Z"/>
    <path class="cls-1" d="M374.64,425.82c1.76-2.31,2.73-3.58,4.29-5.63,.66,2.7,1.17,4.76,1.67,6.83-1.8-.36-3.59-.72-5.97-1.2Z"/>
    <path class="cls-1" d="M264.07,281.32c2.21-2.51-4.71-3.45-.48-5.99,.57-.34,3.05,1.31,3.61,2.52,.43,.92-.78,2.6-1.26,3.93-.63-.15-1.25-.31-1.88-.46Z"/>
    <path class="cls-1" d="M285.69,215.81c-.65,1.13-1.31,2.26-1.61,2.79h-7.38l-.22-1.05c2.85-1.04,5.7-2.08,8.56-3.11l.66,1.37Z"/>
    <path class="cls-1" d="M369.41,221.49c-1.37,2.55-2.74,5.09-4.36,8.11-.59-1.04-2.17-2.95-1.83-3.39,1.52-2.01,3.6-3.6,5.47-5.34,.24,.21,.48,.42,.72,.63Z"/>
    <path class="cls-1" d="M492.09,218.04c-2.5-1.9-2.17-3.57,.26-5.32,1.59-1.15,2.98-2.58,5.01-3.55-1.67,3.01-3.33,6.02-4.99,9.02,0,0-.27-.15-.27-.15Z"/>
    <path class="cls-1" d="M267.79,179.66c-.67-2.43-1.3-4.43-1.73-6.48-.14-.68-.03-1.78,.42-2.14,.5-.41,1.77-.54,2.22-.18,.6,.48,1.12,1.63,.98,2.35-.4,2.07-1.16,4.08-1.88,6.44Z"/>
    <path class="cls-1" d="M156.07,522.97c2.89,3.95,5.77,7.9,8.66,11.85-.34,.26-.67,.51-1.01,.77l-9.14-11.47c.5-.38,.99-.77,1.49-1.15Z"/>
    <path class="cls-1" d="M320.41,208.41c.64,3.01,1.07,5,1.6,7.5-.2,.14-1.16,.77-2.55,1.7-.51-2.51-1.17-4.7-1.28-6.92-.04-.69,1.39-1.46,2.24-2.28Z"/>
    <path class="cls-1" d="M144.7,546.3c6-1.96,12.01-3.93,18.01-5.89,.12,.37,.24,.74,.37,1.11-6.05,2-12.09,3.99-18.14,5.99-.08-.4-.16-.8-.24-1.2Z"/>
    <path class="cls-1" d="M336.97,118.43c-.1-1.99-.6-3.67-.12-5,.5-1.4,1.94-2.47,3.49-4.3-.38,3.88-.67,6.76-.98,9.83-.46-.1-1.81-.4-2.39-.53Z"/>
    <path class="cls-1" d="M379.48,251.13v-10.53h1.43v10.49c-.48,.01-.95,.03-1.43,.04Z"/>
    <path class="cls-1" d="M387.83,264.46c-.48,.94-.96,1.88-1.44,2.83-.52,1.09-.92,2.26-1.61,3.22-.27,.37-1.24,.41-1.83,.29-.37-.08-.82-.72-.88-1.15-.36-2.81,2.79-5.61,5.76-5.18Z"/>
    <path class="cls-1" d="M366.43,274.14c1.61-1.27,3.05-3.09,4.87-3.63,1.27-.37,3.05,1.03,5.52,2-4.11,.97-6.94,1.64-9.78,2.31-.2-.23-.41-.45-.61-.68Z"/>
    <path class="cls-1" d="M339.54,207.53c.02-2.99-3.53-5.87,1.99-7.99-1.2,2.73,2.6,5.65-1.99,7.99Z"/>
    <path class="cls-1" d="M332.19,141.91c-2.39,1.52-3.62,2.69-5.06,3.07-1.01,.26-2.4-.4-3.44-.98-.44-.25-.41-1.35-.59-2.06,.95,0,1.9-.03,2.85-.03,1.7,0,3.41,0,6.24,0Z"/>
    <path class="cls-1" d="M71.85,403.8c-.2-2.3-.74-4.64-.44-6.87,.13-.97,2.01-1.7,3.1-2.55-.54,3.5-.98,6.33-1.42,9.17-.41,.08-.83,.17-1.24,.25Z"/>
    <path class="cls-1" d="M279.89,255.51c1.44-.78,2.88-1.57,4.33-2.32,1.98-1.03,3.97-2.04,6.66-3.42-.35,.92-.52,2.99-1.38,3.35-2.99,1.21-6.22,1.83-9.35,2.67,0,0-.26-.27-.26-.27Z"/>
    <path class="cls-1" d="M349.31,135.86c.36-.36,.72-.72,1.08-1.08,.51,3.45,1.02,6.91,1.52,10.36-.78,.07-1.56,.14-2.34,.21-.09-3.16-.18-6.33-.27-9.49Z"/>
    <path class="cls-1" d="M546.62,165.38c1.97,3.73,3.32,6.26,5.25,9.92-2.56-1.67-4.88-2.61-6.21-4.31-.67-.85,.47-3.12,.96-5.6Z"/>
    <path class="cls-1" d="M40.99,323.43c.44-1.57,.88-3.14,1.45-5.17,1.49,.76,2.89,1.47,4.29,2.18-1.54,1.31-3.09,2.62-4.63,3.93-.37-.31-.74-.63-1.11-.94Z"/>
    <path class="cls-1" d="M219.63,329.02c2.81-1.81,4.58-3.12,6.52-4.11,.53-.27,1.55,.37,2.34,.6-.44,1.01-.71,2.74-1.36,2.89-2.08,.5-4.31,.42-7.5,.62Z"/>
    <path class="cls-1" d="M45.02,190c-2.82-.89-4.49-1.42-6.62-2.1,1.53-1.39,2.87-2.61,5.2-4.73,.57,2.73,.94,4.53,1.42,6.83Z"/>
    <path class="cls-1" d="M296.76,422.85c-.66,.4-2.48,2.08-3.05,1.73-2.25-1.38-4.12-3.39-5.54-5.84,2.77,1.33,5.55,2.65,8.58,4.11Z"/>
    <path class="cls-1" d="M459.11,289.4c.75-2.11,1.5-4.22,2.44-6.89,4.33,4.42,1.2,5.79-1.15,7.41-.43-.18-.86-.35-1.29-.53Z"/>
    <path class="cls-1" d="M426.98,224.87c.43,2.57,.87,5.13,1.51,8.91-3.55-3.16-5.1-5.5-3.32-8.66,.6-.08,1.21-.16,1.81-.25Z"/>
    <path class="cls-1" d="M441.74,294.03c-.66-.1-1.33-.2-1.99-.31-.19-.99-.38-1.97-.62-3.19,2.3-1.03,4.71-2.77,6.98,.66-1.7,1.1-3.03,1.97-4.36,2.84Z"/>
    <path class="cls-1" d="M189.28,249.23c1.34,2,2.72,3.98,3.98,6.02,.14,.23-.39,1.24-.59,1.23-.68-.03-1.69-.13-1.96-.58-1.09-1.78-1.94-3.71-2.88-5.58,.48-.36,.97-.73,1.45-1.09Z"/>
    <path class="cls-1" d="M322.08,377.2c-1.28-.2-2.77-.43-4.26-.66,.52-2.47,1.03-4.95,1.76-8.43,.98,3.55,1.65,5.99,2.5,9.09Z"/>
    <path class="cls-1" d="M426.19,304.14c.27,2.55,.77,5.12,.66,7.65-.03,.67-1.96,1.26-3.6,2.23,.85-3.88,1.47-6.74,2.09-9.6,.28-.09,.57-.19,.85-.28Z"/>
    <path class="cls-1" d="M333.32,410.2c-.62-2.1-1.39-4.18-1.78-6.33-.1-.58,.94-1.37,1.46-2.07,.62,.55,1.77,1.11,1.76,1.66-.02,2.24-.39,4.48-.64,6.72-.27,0-.54,.02-.81,.03Z"/>
    <path class="cls-1" d="M323.28,184.6c.18-3.59,.35-7.19,.53-10.78,.41,0,.82,0,1.24,0v10.69c-.59,.03-1.17,.07-1.76,.1Z"/>
    <path class="cls-1" d="M310.24,154.73c2.65-1.98,5.31-3.96,7.96-5.94,.36,.47,.73,.95,1.09,1.42-2.63,2.01-5.27,4.02-7.9,6.03l-1.15-1.51Z"/>
    <path class="cls-1" d="M435.81,110.89c1.34-.85,2.45-1.56,4.89-3.11-.4,3.27-.66,5.39-.92,7.5-.52,0-1.04,0-1.56-.01-.74-1.36-1.49-2.71-2.4-4.38Z"/>
    <path class="cls-1" d="M384.8,455.3c.29-2.47,.58-4.94,.86-7.41l2.32,.26c-.27,2.51-.54,5.01-.8,7.52-.79-.13-1.59-.25-2.38-.38Z"/>
    <path class="cls-1" d="M14.41,424.52c1.72-4.68,4.72-1.83,7.29-1.39q-1.3,2.38-7.29,1.39Z"/>
    <path class="cls-1" d="M308.78,286.03c-2.08,1.67-3.93,3.16-6.19,4.98,.15-1.27,.25-2.08,.39-3.19-1.24,.17-2.24,.3-3.24,.44-.12-.27-.25-.55-.37-.82,1.43-.57,2.82-1.39,4.3-1.63,1.47-.24,3.03,.11,5.12,.23Z"/>
    <path class="cls-1" d="M177.77,226.47l-1.18,6.24c-.5,.05-1.01,.11-1.51,.16-.44-1.49-1.38-3.07-1.15-4.44,.17-1,1.91-1.73,2.94-2.57,.3,.21,.6,.41,.9,.62Z"/>
    <path class="cls-1" d="M381.98,264.28c-1.73-1.65-3.69-2.89-4.6-4.66-.46-.91,.96-2.78,1.58-4.35,1.1,3.28,1.92,5.73,3.01,9.01Z"/>
    <path class="cls-1" d="M402.61,77.3c1.76,6.04-2.95,6.51-5.72,8.39,1.74-2.55,3.47-5.09,5.72-8.39Z"/>
    <path class="cls-1" d="M484.77,198.74c-.06,1.09-.12,2.17-.23,3.99,1.01-1.59,1.71-2.69,2.41-3.79,.37,.15,.75,.3,1.12,.44-.74,1.7-1.41,3.44-2.32,5.04-.12,.2-2.15-.23-2.18-.5-.21-1.73-.11-3.49-.11-5.25,.44,.02,.87,.05,1.31,.07Z"/>
    <path class="cls-1" d="M318.94,134.74c-2.33,2.49-4.71,5.04-7.11,7.61-1.01-3.67,2.42-7.25,7.11-7.61Z"/>
    <path class="cls-1" d="M65.47,310.24c-1.66-2.79-2.54-4.26-3.81-6.38,.55-.34,1.45-1.35,2.21-1.26,.84,.11,2.09,1.16,2.2,1.93,.21,1.45-.27,3.01-.61,5.71Z"/>
    <path class="cls-1" d="M208.81,106.62c4.27-.58,8.53-1.16,12.8-1.74,.07,.45,.13,.89,.2,1.34-4.24,.67-8.48,1.33-12.72,2-.09-.53-.18-1.06-.27-1.6Z"/>
    <path class="cls-1" d="M339.63,181.66c1.33-1.11,2.33-1.93,3.32-2.75,.97,1.82,1.93,3.65,2.9,5.47-.24,.19-.48,.38-.72,.57-1.5-.9-3-1.8-5.5-3.29Z"/>
    <path class="cls-1" d="M329.41,471.91c-.6-1.01-1.2-2.02-2.35-3.95-.69,2.37-1.1,3.79-1.54,5.29-1.52-3.81-1.4-4.09,3.49-7.54,.47,2.16,.89,4.05,1.3,5.95-.3,.08-.6,.17-.9,.25Z"/>
    <path class="cls-1" d="M403.61,249.51c-2.13,1-3.91,1.84-5.69,2.67-.14-.38-.27-.75-.41-1.13,1.25-1.84,2.51-3.68,4.33-6.35,.85,2.31,1.28,3.47,1.77,4.81Z"/>
    <path class="cls-1" d="M293.4,358.58c.35-1.83,.71-3.66,1.32-6.87,1.59,2.11,3.19,3.4,2.97,4.13-.42,1.36-1.9,2.4-2.93,3.58-.45-.28-.9-.56-1.36-.84Z"/>
    <path class="cls-1" d="M280.75,232.3c-.14,1.98-.28,3.97-.43,6.07-4.61-1.22-4.67-2.09,.43-6.07Z"/>
    <path class="cls-1" d="M90.94,255.84q1.35,3.77-6.43,5.26c2.03-1.66,4.06-3.32,6.43-5.26Z"/>
    <path class="cls-1" d="M194.86,230.01c-.21,1.71-.41,3.43-.62,5.21h-3.82c-.29-.33-.59-.66-.88-.99,1.53-1.63,3.06-3.25,4.59-4.88,.24,.22,.49,.44,.73,.66Z"/>
    <path class="cls-1" d="M76.33,236.91c1.73-2.42,3.47-4.84,5.2-7.26,.51,.35,1.03,.7,1.54,1.05-1.68,2.42-3.35,4.83-5.03,7.25-.57-.34-1.14-.69-1.71-1.03Z"/>
    <path class="cls-1" d="M443.34,324.1c1.18,.5,2.35,.99,3.65,1.54-.13,1.39-.25,2.81-.38,4.23-.36,.16-.72,.33-1.08,.49-1.16-1.79-2.32-3.57-3.47-5.36,.43-.3,.85-.6,1.28-.9Z"/>
    <path class="cls-1" d="M466.52,208.07c-.71-.81-1.42-1.62-2.34-2.66-.48,.92-.82,1.57-1.16,2.23-.4,.03-.79,.06-1.19,.09-.12-1.93-.24-3.87-.36-5.8,.37-.11,.74-.22,1.1-.34,1.6,1.92,3.19,3.85,4.78,5.77-.28,.23-.56,.47-.84,.7Z"/>
    <path class="cls-1" d="M108.58,174.08c-2.77,1.35-5.02,2.44-7.27,3.53-1.42-4.04-1.01-4.24,7.27-3.53Z"/>
    <path class="cls-1" d="M329.74,215.35c1.24,3.9,2.13,6.7,3.02,9.49l-1.75,.52c.15-3.09-4.56-4.8-1.27-10.01Z"/>
    <path class="cls-1" d="M31,493.24h8.81c-2.94,1.31-5.75,4.11-8.92,1.63,.04-.54,.07-1.08,.11-1.63Z"/>
    <path class="cls-1" d="M430.18,284.35c-1.65,.93-2.8,2.09-3.53,1.87-.96-.29-1.59-1.67-2.37-2.58,.79-.65,1.71-1.95,2.34-1.82,1.08,.23,1.98,1.34,3.56,2.53Z"/>
    <path class="cls-1" d="M288.93,315.74c1.21,1.11,2.43,2.22,3.64,3.33-.65,.64-1.3,1.27-1.94,1.91-1.09-1.27-2.17-2.54-3.26-3.81,.52-.47,1.04-.95,1.56-1.42Z"/>
    <path class="cls-1" d="M225.18,273.45c-.08,1.02-.16,2.04-.27,3.42,1.01-.53,1.75-.91,2.48-1.29,.31,.24,.62,.49,.93,.73-.66,.94-1.27,2.58-2,2.64-.97,.07-2.5-.88-2.92-1.79-.51-1.11-.12-2.64-.12-3.99,.63,.09,1.26,.19,1.89,.28Z"/>
    <path class="cls-1" d="M417.9,44.25c-2.6,1.1-5.2,2.2-8.16,3.46,.99-5.65,5.04-3.74,8.16-3.46Z"/>
    <path class="cls-1" d="M334.91,229.85c-.4-4.15-.8-8.29-1.19-12.44,3.02,3.71,1.04,8.28,2.77,12.23-.52,.07-1.05,.14-1.57,.21Z"/>
    <path class="cls-1" d="M78.36,412.36c-.47-1.11-1.27-2.19-1.34-3.32-.08-1.27,.5-2.58,.79-3.88,.47,1.01,1.04,1.99,1.37,3.05,.36,1.16,.49,2.39,.72,3.59-.51,.19-1.03,.38-1.54,.56Z"/>
    <path class="cls-1" d="M215.81,246.71c6.47-.76,4.16,3.19,5.24,5.01-.45,.3-.9,.59-1.36,.89-1.15-1.74-2.29-3.48-3.89-5.9Z"/>
    <path class="cls-1" d="M15.08,207.11c1.11-3.43,4.31-2.98,7.02-3.3,.29-.03,.89,.88,.99,1.42,.06,.31-.55,1.03-.93,1.09-2.29,.34-4.6,.53-7.07,.79Z"/>
    <path class="cls-1" d="M90.93,173.23c2.21-4.64,3.55-5.12,8.85-2.81-3.06,.97-6.05,1.92-8.85,2.81Z"/>
    <path class="cls-1" d="M210.96,283.45c0,1.64,.45,3.47-.14,4.85-.48,1.13-2.21,1.73-3.81,1.7,.87-2.1,1.74-4.2,2.61-6.3,.44-.08,.89-.16,1.33-.25Z"/>
    <path class="cls-1" d="M518.39,163.73c-.32,1.2-.39,2.56-1.04,3.55-.67,1.02-1.84,1.77-2.93,2.42-.23,.14-1.02-.66-1.55-1.03,.72-.81,1.45-1.62,2.16-2.44,.84-.96,1.66-1.93,2.49-2.9,.29,.13,.57,.27,.86,.4Z"/>
    <path class="cls-1" d="M365.5,158.16c-.83,3.36-1.66,6.72-2.5,10.08-.48-.1-.95-.21-1.43-.31l2.37-10.04c.52,.09,1.04,.18,1.56,.27Z"/>
    <path class="cls-1" d="M276.13,104.66c2.93-1.47,5.86-2.95,8.79-4.42,.26,.53,.53,1.06,.79,1.6-2.98,1.38-5.96,2.75-8.94,4.13-.21-.43-.43-.87-.64-1.3Z"/>
    <path class="cls-1" d="M378.47,280.98c.56-1.83,.92-3.03,1.31-4.3,1.99,1.49,3.66,2.73,5.75,4.3h-7.06Z"/>
    <path class="cls-1" d="M471.23,200.53c.22,2.4,.43,4.71,.7,7.59-4.6-3.57-4.64-5.45-.7-7.59Z"/>
    <path class="cls-1" d="M92.56,214.09c-.06-4.25,.88-7.89,5.88-9.9-2.22,3.74-4.05,6.82-5.88,9.9Z"/>
    <path class="cls-1" d="M315.09,346.73l7.98,5.78c-.21,.33-.41,.65-.62,.98-2.78-1.68-5.56-3.36-8.35-5.04,.33-.57,.66-1.14,.98-1.72Z"/>
    <path class="cls-1" d="M351.65,353.69c-3.29-2.35-2.51-4.82-.86-7.33l1.39-.05c0,2.32,0,4.65,0,6.97-.18,.13-.36,.27-.53,.41Z"/>
    <path class="cls-1" d="M334.87,181.52c-1.04,1.17-1.78,2-2.52,2.84-.55-.88-1.56-1.78-1.53-2.65,.03-.98,.99-1.94,1.55-2.9,.73,.8,1.47,1.59,2.51,2.72Z"/>
    <path class="cls-1" d="M86.5,305.42c-1.42-1.62-2.87-3.2-4.22-4.88-.23-.29-.15-1.12,.11-1.42,.25-.29,1.22-.44,1.36-.26,1.4,1.87,2.7,3.82,4.03,5.74-.43,.27-.86,.54-1.29,.81Z"/>
    <path class="cls-1" d="M275.36,237.73h-6.84c-.16-.25-.32-.51-.49-.76,1.86-.77,3.69-1.65,5.61-2.19,.23-.07,.96,1.63,1.72,2.96Z"/>
    <path class="cls-1" d="M458.77,220.99c1.15,2.39,2.3,4.79,3.45,7.18-.46,.26-.92,.52-1.39,.78-1.38-2.27-2.77-4.55-4.15-6.82l2.08-1.15Z"/>
    <path class="cls-1" d="M382.59,289.34c-2.05,.82-4.07,1.7-6.15,2.41-.45,.15-1.19-.19-1.63-.52-.15-.11,.08-1.23,.33-1.32,2.31-.76,4.66-1.4,7-2.07,.15,.5,.3,.99,.45,1.49Z"/>
    <path class="cls-1" d="M397.35,392.6c3.17-2.92,5.32-4.89,7.85-7.22,.32,5.67-3.21,6.26-7.85,7.22Z"/>
    <path class="cls-1" d="M416.18,94.01c-.32,.34-.93,.98-1.42,1.5-1.67-1.88-3.19-3.59-4.85-5.46,1.1-.35,2.32-.74,3.24-1.03,.98,1.62,1.92,3.17,3.03,4.99Z"/>
    <path class="cls-1" d="M216.77,271.48l2.18-5.85c.68,.19,1.35,.39,2.03,.58-.61,1.98-1.22,3.96-1.82,5.95-.8-.22-1.59-.45-2.39-.67Z"/>
    <path class="cls-1" d="M471.5,157.83c.24,2.91,.42,5.16,.6,7.41-.49,.12-.98,.24-1.47,.37-.7-2.09-1.47-4.17-1.97-6.31-.05-.22,1.58-.83,2.84-1.47Z"/>
    <path class="cls-1" d="M366.84,90.07c1.56,1.14,3.12,2.27,4.61,3.49,.03,.02-1.06,1.62-1.16,1.57-1.04-.53-2.1-1.14-2.92-1.96-.57-.57-.8-1.49-1.17-2.26,.21-.28,.43-.56,.64-.84Z"/>
    <path class="cls-1" d="M54.82,237.6c.3,2.4,.6,4.8,.89,7.2-.57,.09-1.13,.18-1.7,.26-.39-2.43-.78-4.87-1.17-7.3,.66-.05,1.31-.11,1.97-.16Z"/>
    <path class="cls-1" d="M42.61,279.75c1.06-1.42,2.11-2.85,3.24-4.22,.03-.04,1.39,.9,1.36,.96-.85,1.55-1.81,3.04-2.74,4.54l-1.86-1.28Z"/>
    <path class="cls-1" d="M337.01,295.15c1.05-1.37,2.09-2.75,3.3-4.34,1.18,1.11,2,1.87,3.17,2.97-2.08,.84-3.91,1.58-5.75,2.33-.24-.32-.48-.63-.72-.95Z"/>
    <path class="cls-1" d="M323.27,494.55c-2.41-.61-4.82-1.23-7.22-1.84,.16-.63,.33-1.26,.49-1.9,2.4,.68,4.79,1.37,7.19,2.05-.15,.56-.3,1.12-.45,1.68Z"/>
    <path class="cls-1" d="M446.66,39.16c.72,1.9,1.57,3.77,2.09,5.73,.16,.61-.57,1.46-.89,2.2-.69-.49-1.92-.93-1.99-1.49-.24-2.09-.1-4.22-.1-6.33,.29-.04,.59-.07,.88-.11Z"/>
    <path class="cls-1" d="M72.08,383.81c-1.14,2.14-1.98,3.7-2.96,5.54-2.65-3.52-2.17-4.46,2.96-5.54Z"/>
    <path class="cls-1" d="M370.14,44.24c.36-1.1,.84-2.92,.98-2.89,2.14,.38,4.24,1.01,6.07,2.5-2.01,.11-4.02,.22-7.04,.39Z"/>
    <path class="cls-1" d="M86.07,220.94c-1.04,2.27-2.09,4.54-3.5,7.62-2.54-4.85,.85-6.12,3.5-7.62Z"/>
    <path class="cls-1" d="M7.62,259.35v-7.83c.4-.02,.79-.03,1.19-.05v7.75c-.4,.04-.79,.09-1.19,.13Z"/>
    <path class="cls-1" d="M34.03,388.11c-1.44,1.33-2.38,2.42-3.56,3.11-.25,.15-1.35-1.16-2.06-1.79,1.04-.82,2.02-1.77,3.17-2.39,.37-.2,1.21,.5,2.45,1.07Z"/>
    <path class="cls-1" d="M204.04,233.13c.92,1.12,1.65,2.01,2.8,3.42-2.1,.83-4.03,1.6-5.96,2.36-.25-.19-.5-.39-.75-.58,1.26-1.68,2.52-3.35,3.91-5.2Z"/>
    <path class="cls-1" d="M497.31,164.1c2.33,2.5,2.09,5.35-.31,7.07-1.9,1.37-3.53,3.12-5.59,4.98-.47-.73-1.28-1.98-2.49-3.84,4.78-.81,7.38-3.47,8.05-7.84,.11-.11,.22-.23,.33-.36Z"/>
  </g>
</svg>